<?xml version="1.0" standalone="no"?>
<!DOCTYPE svg PUBLIC "-//W3C//DTD SVG 1.1//EN" "http://www.w3.org/Graphics/SVG/1.1/DTD/svg11.dtd" >
<svg xmlns="http://www.w3.org/2000/svg">
<metadata>Generated by IcoMoon</metadata>
<defs>
<font id="wedding-icon" horiz-adv-x="1024">
<font-face units-per-em="1024" ascent="960" descent="-64" />
<missing-glyph horiz-adv-x="1024" />
<glyph unicode="&#x20;" horiz-adv-x="512" d="" />
<glyph unicode="&#xe900;" glyph-name="balloons" d="M873.508 852.006c-42.718 50.92-100.022 78.964-161.352 78.964-51.736 0-101.514-20.682-141.234-57.762-53.304 56.112-121.512 86.792-194.034 86.792-78.704 0-152.342-36.108-207.346-101.672-53.588-63.874-83.102-148.438-83.102-238.116s29.512-174.24 83.102-238.116c35.942-42.844 79.844-73.1 127.914-88.932l-1.498-49.684 47.782-1.44c2.494-88.414 24.218-122.882 43.524-153.49 18.594-29.476 36.158-57.318 36.158-152.55h66.782c0 114.536-24.68 153.66-46.456 188.18-16.468 26.108-30.866 48.982-33.146 115.844l45.206-1.364 1.656 54.898c47.622 15.932 91.116 46.038 126.774 88.54 12.594 15.008 23.836 31.172 33.698 48.264 11.19-5.988 22.758-10.912 34.624-14.672l-1.11-36.822 27.798-0.84c2.956-62.492 19.104-88.104 33.516-110.952 13.792-21.862 25.704-40.748 25.704-109.438h66.782c0 87.994-19.126 118.316-36.002 145.070-11.316 17.938-20.592 32.678-23.052 73.302l24.656-0.744 1.22 40.468c38.188 12.112 73.038 35.838 101.438 69.69 41.302 49.228 64.048 114.322 64.048 183.292 0.002 68.966-22.748 134.062-64.050 183.29zM376.888 347.21c-123.33 0-223.666 122.47-223.666 273.006s100.338 273.002 223.666 273.002 223.664-122.47 223.664-273.006-100.334-273.002-223.664-273.002zM712.158 473.244c-23.078 0-45.652 6.166-66.362 17.996 14.132 40.402 21.542 84.046 21.542 128.972 0 72.764-19.432 142.158-55.386 199.864 28.24 28.6 63.132 44.108 100.208 44.108 87.462 0 158.618-87.69 158.618-195.472s-71.16-195.468-158.62-195.468z" />
<glyph unicode="&#xe901;" glyph-name="bed" d="M955.080 285.522v360.284h-886.16v-360.284h-68.92v-349.444h1024v349.444h-68.92zM135.702 579.024h752.596v-293.5h-72.972v225.176h-606.652v-225.176h-72.972v293.5zM748.544 443.918v-158.392h-203.152v158.392h203.152zM478.608 443.916v-158.392h-203.152v158.392h203.152zM957.218 2.862h-890.436v215.88h890.434v-215.88zM450.356 728.956c17.956-13.89 42.436-29.802 43.466-30.474l18.178-11.796 18.178 11.796c1.032 0.672 25.51 16.582 43.464 30.47 41.9 32.406 89.996 76.458 89.996 129.91 0 55.724-45.334 101.058-101.060 101.058-17.926 0-35.352-4.784-50.578-13.588-15.226 8.804-32.652 13.588-50.58 13.588-55.726 0-101.060-45.334-101.060-101.058 0.002-53.45 48.096-97.502 89.996-129.906zM461.422 893.142c9.912 0 19.012-4.094 25.624-11.528l24.954-28.066 24.954 28.064c6.612 7.436 15.712 11.528 25.624 11.528 18.902 0 34.278-15.376 34.278-34.276 0-12.562-11.114-36.13-64.072-77.088-6.402-4.954-14.004-10.362-20.786-15.050-6.782 4.686-14.382 10.098-20.788 15.052-52.954 40.954-64.070 64.524-64.070 77.084 0.004 18.904 15.38 34.28 34.282 34.28z" />
<glyph unicode="&#xe902;" glyph-name="bell" d="M1024 271.356l-11.214 30.812c-16.434 45.146-35.42 60.308-58.536 75.438-22.502 14.726-50.506 33.056-96.208 158.614-31.98 87.862-104.39 142.092-183.342 144.914 6.832 19.624 6.718 40.818-0.484 60.604-8.276 22.736-24.91 40.89-46.84 51.116-21.928 10.226-46.526 11.296-69.262 3.026-19.952-7.262-35.788-20.86-46.118-37.686-10.328 16.828-26.166 30.424-46.116 37.686-22.74 8.278-47.336 7.2-69.264-3.026-21.93-10.226-38.564-28.378-46.84-51.114-7.2-19.788-7.314-40.982-0.486-60.602-78.95-2.82-151.362-57.058-183.34-144.918-45.698-125.556-73.706-143.884-96.208-158.614-23.116-15.13-42.106-30.29-58.536-75.438l-11.206-30.812 165.074-60.082c-6.488-19.984-5.21-41.344 3.714-60.484 9.344-20.044 25.938-35.248 46.718-42.812 9.316-3.39 18.852-4.996 28.236-4.996 32.88 0 63.816 19.778 76.754 51.724l165.116-60.098 11.216 30.81c16.434 45.148 11.632 68.968 3.648 95.416-6.63 21.962-14.632 48.518 11.522 133.78 26.154-85.26 18.15-111.818 11.522-133.78-7.982-26.45-12.786-50.268 3.648-95.416l11.216-30.81 165.116 60.098c12.936-31.948 43.872-51.726 76.752-51.724 9.382 0 18.922 1.606 28.236 4.996 20.782 7.564 37.376 22.766 46.72 42.812 8.926 19.14 10.202 40.504 3.714 60.484l165.078 60.082zM566.436 721.324c2.822 6.056 7.834 10.646 14.112 12.93 2.79 1.016 5.684 1.522 8.566 1.522 3.6 0 7.19-0.786 10.552-2.356 6.052-2.822 10.644-7.832 12.928-14.108v-0.002c2.284-6.274 1.986-13.066-0.836-19.116-2.822-6.056-7.834-10.646-14.108-12.93-12.952-4.72-27.336 1.988-32.050 14.942-2.284 6.276-1.986 13.064 0.836 19.118zM411.406 719.31c2.284 6.276 6.876 11.286 12.928 14.108 3.362 1.57 6.952 2.356 10.552 2.356 2.884 0 5.778-0.504 8.568-1.522 6.276-2.284 11.288-6.876 14.11-12.93s3.12-12.842 0.836-19.118v0.002c-4.712-12.958-19.094-19.666-32.048-14.946-6.276 2.284-11.288 6.876-14.11 12.93-2.822 6.056-3.12 12.844-0.836 19.12zM237.938 169.604c-4.322 1.572-7.77 4.732-9.712 8.898-1.518 3.252-1.958 6.814-1.34 10.274l31.84-11.59c-4.092-7.1-12.826-10.48-20.788-7.582zM467.11 426.608c-49.16-135.062-42.404-181.682-29.414-224.724 2.464-8.156 4.344-14.386 4.538-21.702l-353.996 128.846c4.852 5.48 10.296 9.044 17.426 13.708 37.62 24.622 72.758 55.992 121.918 191.056 29.090 79.928 100.582 119.618 169.974 94.354 69.396-25.258 98.65-101.606 69.554-181.538zM511.998 597.288c-8.59 13.158-18.832 25.182-30.602 35.792 12.254 7.318 22.842 17.536 30.602 30.12 7.76-12.586 18.348-22.804 30.6-30.122-11.768-10.61-22.006-22.634-30.6-35.79zM795.776 178.504c-1.944-4.166-5.392-7.33-9.714-8.898-7.964-2.906-16.696 0.478-20.788 7.586l31.842 11.59c0.618-3.466 0.178-7.026-1.34-10.278zM581.766 180.186c0.194 7.316 2.074 13.544 4.538 21.702 12.99 43.038 19.746 89.658-29.414 224.72-29.094 79.932 0.16 156.28 69.554 181.54 14.038 5.11 28.156 7.562 41.996 7.562 54.582 0 104.774-38.152 127.98-101.914 49.16-135.064 84.298-166.436 121.918-191.056 7.13-4.666 12.574-8.23 17.426-13.708l-353.998-128.846z" />
<glyph unicode="&#xe903;" glyph-name="bouquet" d="M309.234 525.914c0-25.44-20.624-46.064-46.064-46.064s-46.064 20.624-46.064 46.064c0 25.44 20.624 46.064 46.064 46.064s46.064-20.624 46.064-46.064zM932.276 596.94c0.24 26.424-10.022 51.96-29.246 71.184-19.222 19.222-44.722 29.38-71.182 29.244-18.514 18.86-43.832 29.66-71.026 29.66-5.108 0-10.15-0.38-15.092-1.126 0 0.12 0.008 0.238 0.008 0.358 0 31.66-12.962 61.064-35.49 82.128 1.032 30.822-10.592 60.774-32.97 83.154-22.378 22.378-52.302 34.004-83.152 32.968-21.058 22.53-50.466 35.49-82.124 35.49s-61.064-12.962-82.128-35.49c-30.832 1.048-60.77-10.592-83.154-32.97-22.376-22.378-34.002-52.33-32.968-83.154-22.528-21.062-35.49-50.466-35.49-82.124 0-0.12 0.008-0.238 0.008-0.358-4.942 0.744-9.984 1.126-15.092 1.126-27.194 0-52.512-10.804-71.026-29.66-26.44 0.196-51.96-10.022-71.182-29.244s-29.486-44.758-29.246-71.184c-18.86-18.514-29.66-43.832-29.66-71.028s10.8-52.512 29.66-71.028c-0.24-26.424 10.022-51.96 29.246-71.184 18.986-18.984 44.334-29.4 71.148-29.21 18.518-18.88 43.848-29.692 71.058-29.692s52.542 10.814 71.058 29.692c0.204 0 0.412-0.002 0.618-0.002 13.522 0 26.626 2.684 38.722 7.778 40.164-56.544 68.902-113.914 86.050-171.658-29.472 21.326-57.74 36.202-84.564 44.438-63.196 19.398-101.948-2.81-119.422-17.776-44.316-37.948-50.248-109.122-13.22-158.66 24.51-32.792 63.606-50.794 110.218-50.794 0.514 0 1.030 0.002 1.55 0.006 37.54 0.32 79.24 12.030 124.422 34.784v-106.608h66.782v106.61c45.182-22.758 86.882-34.464 124.422-34.784 0.518-0.004 1.030-0.006 1.548-0.006 46.608 0 85.708 18.004 110.218 50.794 37.026 49.538 31.096 120.712-13.22 158.66-17.474 14.964-56.228 37.166-119.422 17.776-26.822-8.234-55.094-23.114-84.564-44.438 17.15 57.75 45.892 115.124 86.062 171.676 12.296-5.176 25.622-7.87 39.328-7.794 18.516-18.878 43.85-29.692 71.058-29.692 27.21 0 52.54 10.812 71.058 29.692 26.824-0.064 52.162 10.226 71.148 29.212 19.222 19.222 29.486 44.758 29.246 71.184 18.86 18.514 29.66 43.832 29.66 71.028 0.004 27.196-10.798 52.506-29.656 71.022zM295.912 98.596c-15.838 21.192-14.36 52.946 3.166 67.952 7.862 6.734 17.684 9.782 28.908 9.782 35.038 0 83.736-29.71 129.086-69.746-87.208-46.668-139.99-36.314-161.16-7.988zM724.922 166.546c17.526-15.008 19.006-46.762 3.166-67.952-21.172-28.324-73.94-38.69-161.16 7.99 59.876 52.862 125.58 87.714 157.994 59.962zM381.856 497.852l-20.414-12.644 5.49-23.376c2.638-11.228-0.64-22.782-8.764-30.908-6.226-6.226-14.506-9.654-23.31-9.654-2.526 0.002-5.084 0.302-7.604 0.892l-23.374 5.484-12.642-20.412c-6.070-9.802-16.56-15.654-28.058-15.654s-21.988 5.852-28.058 15.656l-12.644 20.412-23.374-5.488c-2.516-0.592-5.072-0.89-7.6-0.89-8.804 0-17.080 3.428-23.308 9.652-8.126 8.126-11.402 19.68-8.764 30.91l5.49 23.376-20.414 12.644c-9.804 6.072-15.656 16.562-15.656 28.058s5.852 21.988 15.656 28.058l20.414 12.644-5.49 23.376c-2.638 11.228 0.638 22.784 8.764 30.906 8.126 8.124 19.678 11.4 30.904 8.764l23.376-5.492 12.644 20.416c6.072 9.804 16.562 15.656 28.058 15.656 11.498 0 21.988-5.852 28.058-15.656l12.644-20.414 10.65 2.502c3.010-24.49 14.072-47.576 32.192-65.696 14.14-14.138 31.426-24.042 50.23-29.106 0.356-1.954 0.558-3.946 0.558-5.962 0.002-11.494-5.852-21.984-15.654-28.054zM478.61 319.178c-15.73 29.772-34.212 59.306-55.446 88.55 7.672 14.492 11.618 30.652 11.468 47.158 13.71 13.462 23.136 30.526 27.274 49.286 5.36-2.656 10.948-4.866 16.702-6.636v-178.358zM512.002 559.304c-15.998 0-30.594 8.14-39.042 21.778l-12.644 20.414-23.376-5.492c-3.488-0.82-7.042-1.236-10.558-1.236-12.252 0-23.772 4.772-32.434 13.434-11.306 11.306-15.868 27.38-12.198 42.996l5.49 23.376-20.414 12.644c-13.638 8.448-21.78 23.042-21.78 39.042s8.144 30.594 21.778 39.038l20.414 12.644-5.49 23.376c-3.666 15.618 0.892 31.69 12.196 42.994 11.308 11.306 27.386 15.864 42.996 12.202l23.374-5.49 12.644 20.414c8.45 13.636 23.044 21.778 39.044 21.778s30.594-8.14 39.038-21.776l12.644-20.414 23.376 5.49c15.618 3.668 31.69-0.892 42.996-12.196 11.306-11.306 15.868-27.38 12.198-42.996l-5.49-23.376 20.414-12.644c13.634-8.45 21.778-23.044 21.778-39.044s-8.14-30.594-21.778-39.038l-20.414-12.644 5.49-23.376c3.666-15.618-0.892-31.69-12.198-42.996-8.664-8.664-20.182-13.434-32.434-13.434-3.52 0-7.072 0.416-10.56 1.236l-23.378 5.492-12.644-20.416c-8.446-13.638-23.040-21.78-39.038-21.78zM545.392 319.178v178.356c5.754 1.772 11.342 3.98 16.702 6.636 4.138-18.76 13.564-35.824 27.274-49.286-0.15-16.506 3.8-32.666 11.472-47.158-21.232-29.242-39.718-58.776-55.448-88.548zM879.496 497.856l-20.414-12.644 5.49-23.376c2.638-11.228-0.638-22.784-8.764-30.908-6.226-6.226-14.506-9.654-23.31-9.654-2.528 0-5.084 0.298-7.6 0.89l-23.374 5.488-12.644-20.412c-6.072-9.804-16.562-15.656-28.058-15.656-11.498 0-21.988 5.852-28.058 15.654l-12.642 20.412-23.374-5.486c-2.518-0.59-5.076-0.89-7.604-0.89-8.806 0-17.084 3.428-23.308 9.652-8.126 8.126-11.402 19.68-8.766 30.91l5.49 23.376-20.414 12.644c-9.804 6.072-15.656 16.562-15.656 28.058 0 2.016 0.202 4.010 0.558 5.966 18.804 5.062 36.088 14.964 50.228 29.104 18.118 18.118 29.182 41.204 32.192 65.694l10.65-2.502 12.644 20.414c6.072 9.804 16.56 15.656 28.058 15.656s21.984-5.852 28.058-15.656l12.644-20.416 23.376 5.492c11.228 2.636 22.78-0.638 30.904-8.764 8.126-8.126 11.402-19.68 8.764-30.91l-5.49-23.376 20.414-12.644c9.804-6.072 15.656-16.562 15.656-28.058s-5.846-21.988-15.65-28.058zM806.874 525.914c0-25.44-20.624-46.064-46.064-46.064s-46.064 20.624-46.064 46.064c0 25.44 20.624 46.064 46.064 46.064s46.064-20.624 46.064-46.064zM567.028 726.26c0-30.39-24.636-55.026-55.026-55.026s-55.026 24.636-55.026 55.026c0 30.39 24.636 55.026 55.026 55.026s55.026-24.636 55.026-55.026z" />
<glyph unicode="&#xe904;" glyph-name="bow" d="M988.060 795.189c-12.080 42.824-33.764 72.378-64.458 87.833-27.442 13.822-61.344 14.858-93.015 2.836-69.888-26.532-166.885-121.473-231.069-184.295-8.818-8.63-16.838-16.48-23.97-23.35h-127.097c-7.132 6.874-15.152 14.72-23.97 23.35-64.184 62.824-161.183 157.763-231.069 184.295-31.668 12.020-65.566 10.988-93.015-2.836-30.69-15.456-52.376-45.008-64.454-87.833-31.284-110.915-54.084-207.707-16.074-268.98 16.664-26.866 42.876-43.822 77.902-50.392 45.13-8.466 104.419-12.776 160.825-14.864l-164.975-353.776 152.623 32.342 73.326-137.705 192.429 412.664 192.429-412.664 73.326 137.705 152.623-32.342-164.971 353.772c56.408 2.088 115.699 6.402 160.825 14.864 35.026 6.57 61.238 23.524 77.902 50.392 38.010 61.274 15.21 158.069-16.074 268.984zM110.081 541.47c-21.382 4.010-29.334 13.306-33.454 19.948-25.586 41.246 4.014 146.189 23.6 215.635 6.782 24.050 16.946 39.628 30.212 46.308 15.274 7.696 32.546 2.598 39.262 0.046 56.844-21.58 151.503-114.229 208.055-169.583 9.26-9.064 17.654-17.276 25.19-24.528v-103.021c-64.176-0.818-208.473-0.638-292.866 15.194zM315.606 151.377l-34.034 63.912-70.834-15.012 120.789 259.028c10.286-0.098 20.136-0.138 29.394-0.138 41.182 0 70.748 0.798 75.9 0.946h22.752l-143.967-308.736zM554.251 526.907h-84.506v84.506h84.506v-84.506zM813.255 200.278l-70.834 15.012-34.034-63.912-143.963 308.734h22.752c5.15-0.15 34.704-0.946 75.9-0.946 9.258 0 19.106 0.040 29.394 0.138l120.785-259.026zM947.37 561.418c-4.122-6.642-12.072-15.938-33.454-19.948-84.334-15.822-228.675-16.004-292.864-15.19v103.019c7.536 7.252 15.932 15.466 25.19 24.528 56.552 55.352 151.211 148.003 208.055 169.583 6.714 2.552 23.98 7.648 39.262-0.046 13.266-6.68 23.43-22.26 30.212-46.308 19.584-69.444 49.184-174.389 23.598-215.637z" />
<glyph unicode="&#xe905;" glyph-name="bow-tie" d="M919.93 546.594c-0.932 11.568-2.036 22.766-3.322 33.532-3.894 32.618-23.452 61.438-52.322 77.088-28.854 15.642-63.658 16.308-93.094 1.78l-0.658-0.324-189.492-104.098h-138.082l-190.15 104.422c-29.436 14.528-64.238 13.862-93.094-1.78-28.87-15.652-48.428-44.47-52.322-77.090-1.284-10.768-2.388-21.962-3.322-33.532h-104.072v-197.184h104.070c0.932-11.568 2.036-22.766 3.322-33.532 3.894-32.618 23.452-61.438 52.322-77.088 15.012-8.138 31.632-12.224 48.274-12.224 15.342 0 30.7 3.474 44.822 10.442l0.658 0.324 189.492 104.098h138.082l190.15-104.422c14.122-6.97 29.478-10.442 44.822-10.442 16.64 0 33.26 4.084 48.276 12.224 28.87 15.652 48.428 44.47 52.322 77.090 1.284 10.766 2.388 21.962 3.322 33.532h104.066v197.184h-104.070zM100.732 416.19l-33.95 0.002v63.62h33.95c-0.234-10.392-0.356-20.99-0.356-31.81 0-10.822 0.122-21.422 0.356-31.812zM400.998 487.212h-83.528v-66.782h83.528v-25.852l-178.296-97.95c-10.044-4.744-21.366-4.438-31.16 0.87-9.986 5.416-16.488 15-17.838 26.292-4.344 36.404-6.544 78.192-6.544 124.212s2.202 87.81 6.544 124.208c1.346 11.296 7.85 20.878 17.838 26.294 9.794 5.312 21.122 5.616 31.16 0.87l178.296-97.95v-14.212zM556.218 408.216h-88.44v79.574h88.44v-79.574zM850.296 323.794c-1.346-11.296-7.85-20.878-17.838-26.294-9.794-5.312-21.122-5.614-31.16-0.87l-178.296 97.95v25.852h83.528v66.782h-83.528v14.214l178.296 97.95c10.044 4.746 21.366 4.438 31.16-0.87 9.986-5.416 16.488-15 17.838-26.292 4.344-36.404 6.544-78.192 6.544-124.212s-2.2-87.812-6.544-124.21zM957.218 416.192h-33.95c0.234 10.392 0.356 20.99 0.356 31.81s-0.122 21.42-0.356 31.81h33.95v-63.62z" />
<glyph unicode="&#xe906;" glyph-name="camcorder" d="M577.618 721.090v-80.536h-40.214c-14.89 33.406-36.112 63.392-62.142 88.418v183.834h-388.948v-183.834c-53.17-51.124-86.314-122.93-86.314-202.342s33.144-151.218 86.314-202.342v-341.094h388.948v341.094c22.314 21.454 41.104 46.548 55.394 74.324h46.96v-80.534h446.384v403.012h-446.382zM408.48 846.024v-69.356c-38.328 19.654-81.738 30.75-127.69 30.75-45.954 0-89.362-11.098-127.69-30.75v69.356h255.38zM153.096 49.976v226.616c38.328-19.654 81.738-30.748 127.69-30.748s89.362 11.098 127.69 30.748v-226.616h-255.38zM280.79 312.624c-118.004 0-214.008 96.002-214.008 214.004s96.002 214.008 214.008 214.008c118.004 0 214.008-96.002 214.008-214.008s-96.004-214.004-214.008-214.004zM577.618 465.394h-22.784c4.404 19.718 6.746 40.208 6.746 61.236 0 16.064-1.376 31.808-3.978 47.142h20.016v-108.378zM957.218 384.862h-312.816v269.446h312.816v-269.446zM280.79 693.686c-92.116 0-167.056-74.942-167.056-167.056s74.942-167.056 167.056-167.056c92.116 0 167.056 74.942 167.056 167.056s-74.94 167.056-167.056 167.056zM280.79 426.356c-55.292 0-100.274 44.982-100.274 100.274s44.982 100.274 100.274 100.274c55.292 0 100.274-44.982 100.274-100.274s-44.982-100.274-100.274-100.274z" />
<glyph unicode="&#xe907;" glyph-name="candles" d="M728.433 440.667c4.18 12.854 4.562 23.864 4.742 29.346 1.99 61.084-50.010 122.206-72.458 145.648l-49.936 52.146-6.584-71.898c-2.186-23.89-10.47-37.778-20.058-53.862-10.976-18.406-23.416-39.266-23.416-70.966 0-10.81 1.558-20.97 4.652-30.416h-24.658v219.416h-73.23c11.742 22.568 12.444 43.628 12.772 53.734 1.236 37.976-13.578 80.702-44.034 126.994-20.292 30.842-42.282 55.244-53.584 67.046l-49.936 52.144-6.584-71.894c-3.326-36.328-16.194-57.908-29.816-80.754-14.47-24.268-30.872-51.774-30.872-92.464 0-20.21 4.294-38.566 12.772-54.804h-73.236v-724.083h335.747v56.278h278.315v448.389h-90.596zM352.815 773.658c7.046 11.818 14.894 24.974 21.748 40.786 22.968-32.646 40.894-69.046 39.934-98.484-0.338-10.382-1.346-21.396-9.442-31.854-3.916-5.064-18.122-19.448-31.754-19.448-0.054 0-0.112 0-0.166 0l-0.282 0.004-0.282-0.004c-0.054 0-0.11 0-0.166 0-13.632 0-27.838 14.386-31.758 19.454-8.35 10.786-9.42 22.114-9.42 30.778 0 22.562 9.056 37.748 21.588 58.768zM474.925 1.79h-204.162v592.499h204.162v-592.499zM640.645 508.357c2.802 4.702 5.776 9.684 8.718 15.108 11.138-18.366 18.53-36.756 18.054-51.308-0.208-6.38-0.712-12.092-4.798-17.37-3.366-4.316-10.816-10.302-15.336-10.302-0.014 0-0.028 0-0.044 0l-0.282 0.004-0.282-0.004c-0.016 0-0.028 0-0.044 0-4.522 0-11.97 5.99-15.33 10.294-4.218 5.45-4.788 11.3-4.788 16.308 0.002 12.992 4.588 21.264 14.132 37.27zM753.237 58.068h-212.522v316.807h212.522v-316.807z" />
<glyph unicode="&#xe908;" glyph-name="carriage" d="M250.86 191.526c0-31.547-25.574-57.12-57.12-57.12s-57.12 25.574-57.12 57.12c0 31.547 25.574 57.12 57.12 57.12s57.12-25.574 57.12-57.12zM958.716 225.061c43.246 38.636 64.006 95.974 65.284 99.596l-63.064 22.35c-0.25-0.696-20.262-53.98-54.182-78.204v132.504h-84.22l59.616 250.554c10.13 42.58-0.558 88.77-27.896 120.544-29.376 34.148-65.75 62.076-108.104 83.020-57.436 28.396-124.166 42.794-198.336 42.794s-140.9-14.398-198.336-42.796c-42.354-20.942-78.728-48.872-108.104-83.018-27.336-31.776-38.026-77.966-27.894-120.548l68.494-287.859c-26.476 13.598-56.47 21.278-88.226 21.278-106.832 0-193.746-86.914-193.746-193.746s86.914-193.748 193.746-193.748c106.832 0 193.748 86.914 193.748 193.746 0 5.336-0.228 10.62-0.652 15.85 4.966-0.788 10.020-1.216 15.148-1.216h291.649c29.126 0 56.086 13.082 75.674 34.772 5.304-6.394 10.906-12.206 16.79-17.422-26.12-23.75-42.544-57.988-42.544-95.99 0-71.542 58.202-129.744 129.742-129.744s129.742 58.202 129.742 129.744c0 38.85-17.186 73.74-44.328 97.538zM547.815 831.312c39.334 0 73.7-4.512 103.686-12.030l-33.618-289.741h-140.136l-33.616 289.741c29.984 7.518 64.35 12.030 103.684 12.030zM278.571 667.343c-5.256 22.084-0.074 45.618 13.524 61.42 19.526 22.698 47.748 47.49 87.406 67.022l30.894-266.249h-99.034l-32.79 137.806zM193.746 64.69c-69.94 0-126.84 56.898-126.84 126.84s56.9 126.84 126.84 126.84c69.94 0 126.84-56.9 126.84-126.84s-56.898-126.84-126.84-126.84zM732.031 309.989c-5.17-21.736-20.958-36.916-38.392-36.916h-291.649c-17.434 0-33.222 15.182-38.392 36.92l-36.322 152.642h441.075l-36.32-152.646zM784.27 529.539h-99.028l30.89 266.249c39.658-19.53 67.88-44.326 87.404-67.022 13.598-15.804 18.778-39.338 13.524-61.418l-32.79-137.808zM806.616 334.399h33.232v-67.766c-21.074 13.1-32.9 36.306-37.87 48.28l4.638 19.486zM873.304 64.69c-34.646 0-62.834 28.188-62.834 62.836 0 33.406 26.21 60.798 59.146 62.716 1.232-0.034 2.45-0.108 3.692-0.108 1.36 0 2.708 0.034 4.048 0.080 32.766-2.094 58.786-29.404 58.786-62.69-0.004-34.65-28.192-62.834-62.838-62.834zM907.606 127.52c0-18.95-15.362-34.312-34.312-34.312s-34.312 15.362-34.312 34.312c0 18.95 15.362 34.312 34.312 34.312s34.312-15.362 34.312-34.312z" />
<glyph unicode="&#xe909;" glyph-name="champagne" d="M573.44 686.124l20.39-20.39c-72.366-66.030-121.746-81.536-173.714-97.834-64.026-20.080-130.234-40.844-231.624-142.232l-188.488-188.49 301.176-301.178 188.488 188.49c101.392 101.392 122.158 167.598 142.234 231.626 16.296 51.968 31.804 101.348 97.83 173.714l20.39-20.39 140.444 140.446-176.684 176.684-140.442-140.446zM301.18 32.284l-204.892 204.894 66.344 66.344 35.134-35.134c-8.688-41.8 0.992-80.802 27.406-107.218 26.416-26.416 65.416-36.094 107.218-27.408l35.136-35.136-66.346-66.342zM441.524 172.63l-25.858-25.86-64.3 64.302-20.214-7.106c-24.312-8.548-45.938-6.552-57.838 5.346-11.898 11.898-13.898 33.522-5.346 57.838l7.106 20.212-64.3 64.3 25.86 25.862c9.674 9.674 18.932 18.462 27.858 26.544l63.644-63.644 20.212 7.106c24.318 8.552 45.94 6.55 57.838-5.346 11.898-11.898 13.898-33.522 5.346-57.838l-7.106-20.212 63.644-63.644c-8.084-8.928-16.87-18.184-26.546-27.86zM566.944 376.486c-12.142-38.712-23.85-76.014-56.018-122.566l-29.188 29.188c8.688 41.8-0.992 80.802-27.408 107.218s-65.416 36.096-107.218 27.408l-29.188 29.188c46.548 32.17 83.852 43.878 122.564 56.016 57.544 18.046 116.896 36.692 201.526 114.612l39.536-39.536c-77.914-84.634-96.56-143.984-114.606-201.528zM750.126 605.72l-80.404 80.404 44.162 44.162 80.404-80.404-44.162-44.162zM908.775 892.927l48.141-48.141-67.462-67.462-48.141 48.141 67.462 67.462zM768.14 960h68.084v-95.408h-68.084v95.408zM928.59 772.226h95.408v-68.084h-95.408v68.084z" />
<glyph unicode="&#xe90a;" glyph-name="champagne-1" d="M416.964 746.812h32.544v213.188h-270.672v-213.188h32.548c-4.462-114.22-31.952-166.906-60.926-222.36-34.584-66.188-70.348-134.632-70.348-294.276v-294.176h468.126v294.18c0 159.644-35.76 228.084-70.346 294.276-28.976 55.452-56.462 108.136-60.926 222.356zM245.618 893.218h137.106v-79.622h-137.106v79.622zM209.648 493.526c31.446 60.18 63.876 122.262 68.578 253.286h71.896c4.704-131.026 37.136-193.108 68.576-253.286 21.898-41.91 42.962-82.276 54.246-148.632h-54.618c-25.396 40-63.174 63.294-104.154 63.294-40.978 0-78.762-23.296-104.154-63.294h-54.616c11.286 66.356 32.348 106.722 54.246 148.632zM481.452 2.782h-334.558v114.806h63.126c25.392-39.996 63.176-63.294 104.154-63.294 40.98 0 78.76 23.292 104.154 63.294h63.126v-114.806zM481.454 230.18v-45.808h-103.76l-9.092-18.946c-13.32-27.768-33.67-44.346-54.428-44.346-20.76 0-41.106 16.578-54.428 44.346l-9.092 18.948h-103.76v45.808c0 17.156 0.448 33.062 1.274 47.934h102.486l9.092 18.948c13.32 27.768 33.668 44.346 54.428 44.346 20.758 0 41.106-16.578 54.428-44.346l9.092-18.946h102.486c0.826-14.876 1.274-30.784 1.274-47.938zM637.286 712.118v-298.13c0-73.062 51.39-134.308 119.912-149.596v-261.61h-62.54v-66.782h191.86v66.782h-62.538v261.61c68.522 15.286 119.91 76.536 119.91 149.596v298.13h-306.604zM877.108 413.986c0-47.704-38.812-86.52-86.52-86.52-47.71 0-86.522 38.814-86.522 86.52v19.644h173.040v-19.644zM877.108 500.412h-173.040v144.924h173.040v-144.924z" />
<glyph unicode="&#xe90b;" glyph-name="chat" d="M1023.098 642.113c-0.656 150.14-122.996 271.821-272.993 271.821-0.396 0-0.812 0-1.208-0.002l-477.075-2.082c-72.922-0.318-141.358-29.012-192.698-80.804-51.338-51.786-79.438-120.468-79.122-193.392l0.904-207.224c0.654-150.14 122.994-271.835 272.993-271.821 0.394 0 0.812 0 1.206 0.002l116.678 0.51 121.278-177.054 119.73 178.104 119.388 0.518c150.536 0.658 272.475 123.664 271.819 274.201l-0.9 207.224zM751.889 227.471l-154.774-0.676-84.568-125.8-85.662 125.060-152.068-0.662c-0.304-0.002-0.606-0.002-0.912-0.002-113.296 0-205.72 91.922-206.214 205.33l-0.904 207.224c-0.24 55.084 20.986 106.968 59.768 146.086 38.78 39.122 90.474 60.798 145.562 61.036l477.075 2.082c0.304 0.002 0.606 0.002 0.912 0.002 113.296 0 205.718-91.922 206.214-205.33l0.902-207.224c0.494-113.714-91.618-206.63-205.33-207.126zM576.023 698.353c-22.882 0-45.070-6.618-64.022-18.708-18.952 12.092-41.14 18.708-64.022 18.708-65.642 0-119.046-53.404-119.046-119.046 0-63.792 59.038-117.64 110.47-157.422 22.442-17.356 53.124-37.302 54.418-38.144l18.18-11.8 18.178 11.8c1.296 0.842 31.98 20.788 54.418 38.144 51.432 39.782 110.47 93.626 110.47 157.422 0.004 65.64-53.402 119.046-119.044 119.046zM543.743 474.711c-9.88-7.642-21.944-16.11-31.742-22.798-9.794 6.688-21.86 15.158-31.74 22.798-56.1 43.394-84.544 78.586-84.544 104.594 0 28.816 23.446 52.264 52.264 52.264 14.9 0 29.14-6.404 39.070-17.574l24.954-28.062 24.952 28.064c9.928 11.168 24.166 17.572 39.068 17.572 28.816 0 52.264-23.446 52.264-52.264-0.002-26.012-28.448-61.204-84.546-104.594z" />
<glyph unicode="&#xe90c;" glyph-name="church" d="M654.304 407.736v183.97l-108.912 189.422v68.988h44.292v66.782h-44.292v43.102h-66.782v-43.102h-44.292v-66.782h44.292v-68.988l-108.912-189.422v-184.942l-113.758-70.596v-400.168h512.12v400.012l-113.756 71.724zM512.002 705.222l51.196-89.042h-102.388l51.192 89.042zM587.522 549.398v-99.556l-73.614 46.414-77.424-48.048v101.19h151.038zM565.988 2.782h-107.974v210.35c0 29.768 24.22 53.984 53.988 53.984s53.988-24.218 53.988-53.984v-210.35zM701.278 2.782h-68.508v210.35c0 66.594-54.176 120.768-120.77 120.768s-120.77-54.176-120.77-120.768v-210.35h-68.506v296.232l190.9 118.47 187.652-118.314v-296.388z" />
<glyph unicode="&#xe90d;" glyph-name="cocktail" d="M544.864 339.102h0.004l332.614 425.734h-192.034l91.304 163.046-57.354 32.118-109.292-195.164h-463.588l332.614-425.734v-337.366h-132.472v-65.736h330.676v65.736h-132.472v337.366zM281.294 699.102h461.412l-230.704-295.296-230.708 295.296z" />
<glyph unicode="&#xe90e;" glyph-name="cupcake" d="M941.762 589.394c-27.616 28.36-63.29 46.34-101.986 51.73-43.646 72.156-110.738 128.508-188.916 159.092 0.894 6.388 1.392 12.902 1.392 19.534 0 77.334-62.916 140.25-140.25 140.25s-140.25-62.916-140.25-140.25c0-6.624 0.494-13.132 1.386-19.514-78.218-30.586-145.23-86.868-188.92-159.114-38.694-5.39-74.364-23.37-101.982-51.73-32.25-33.118-50.012-76.82-50.012-123.060 0-76.904 49.416-142.452 118.15-166.654l57.030-363.678h609.194l57.026 363.678c68.738 24.2 118.152 89.75 118.152 166.654-0.002 46.24-17.764 89.944-50.014 123.062zM512.002 893.218c40.51 0 73.468-32.958 73.468-73.468s-32.958-73.468-73.468-73.468-73.468 32.958-73.468 73.468c0 40.51 32.956 73.468 73.468 73.468zM759.47 2.782h-494.94l-45.042 287.25c35.934 2.138 69.934 15.050 97.918 36.89 26.502-23.762 60.972-37.242 97.588-37.242 36.546 0 70.664 13.234 97.008 36.666 26.342-23.432 60.46-36.666 97.008-36.666 36.616 0 71.088 13.482 97.59 37.242 27.982-21.838 61.984-34.754 97.914-36.89l-45.044-287.25zM815.126 356.462c-32.992 0-63.954 14.65-84.938 40.192l-29.182 35.522-24.754-38.736c-14.794-23.154-39.932-36.976-67.242-36.976-28.198 0-53.762 14.532-68.384 38.874l-28.626 47.652-28.624-47.652c-14.62-24.342-40.186-38.874-68.384-38.874-27.306 0-52.442 13.822-67.236 36.976l-24.754 38.736-29.182-35.522c-20.986-25.542-51.944-40.192-84.938-40.192-60.582 0-109.87 49.288-109.87 109.87 0 59.69 46.786 107.86 106.512 109.666l19.222 0.582 9.142 16.92c35.76 66.164 94.614 117.728 164.098 144.732 25.47-35.522 67.072-58.728 114.016-58.728 46.946 0 88.548 23.21 114.016 58.73 69.458-27.004 128.386-78.662 164.092-144.732l9.144-16.92 19.226-0.582c59.728-1.804 106.514-49.974 106.514-109.666-0.002-60.582-49.288-109.872-109.868-109.872z" />
<glyph unicode="&#xe90f;" glyph-name="cupid" d="M1007.748 782.3l16.254 65.108-90.1 22.492-22.494 90.098-65.108-16.254 22.772-91.224-15.142-15.142-13.012 52.13-65.108-16.254 22.772-91.226-59.926-59.926c-32.946 14.944-69.966 22.828-109.014 22.828-65.426 0-126.94-29.696-169.746-79.914-42.812 50.216-104.326 79.914-169.748 79.914-69.72 0-132.98-25.118-178.13-70.726-43.894-44.342-68.068-104.836-68.068-170.34 0-119.86 63.39-195.304 188.352-288.111l-57.784-57.782-73.186 73.186-101.334-295.157 295.155 101.334-73.186 73.186 65.428 65.428c107.708-78.878 143.84-133.624 144.106-134.032l28.286-45.24 28.39 45.068c0.386 0.602 40.14 60.906 160.822 146.174 150.442 106.294 226.828 184.34 226.828 315.947 0 65.504-24.174 125.998-68.064 170.34-3.678 3.714-7.484 7.276-11.394 10.716l49.656 49.656 91.226-22.772 16.254 65.108-52.13 13.012 15.142 15.142 91.23-22.766zM108.048 44.048l21.852 63.646 41.796-41.796-63.648-21.85zM808.724 503.867c0-49.076-13.502-88.394-43.778-127.476-29.248-37.758-75.506-77.734-154.67-133.664-76.888-54.326-123.966-99.958-150.382-129.39-23.31 25.97-62.726 64.56-124.502 110.604l137.92 137.92-47.45 47.45-145.57-145.57c-61.672 45.258-100.008 79.794-125.456 112.646-30.278 39.084-43.78 78.4-43.78 127.476 0 47.708 17.28 91.436 48.652 123.13 32.92 33.254 78.024 50.83 130.438 50.83 57.722 0 111.4-33.702 140.086-87.956l29.664-56.1 29.662 56.102c28.684 54.252 82.36 87.954 140.084 87.954 52.416 0 97.52-17.576 130.436-50.83 31.37-31.686 48.646-75.418 48.646-123.126z" />
<glyph unicode="&#xe910;" glyph-name="cupid-1" d="M974.854 29.696l0.16 0.168c-0.254-0.258-25.674-25.792-56.482-25.934-0.086 0-0.17 0-0.256 0-17.208 0-33.58 8.008-50.048 24.474-31.79 31.79-16.042 116.47-0.816 198.364 22.422 120.584 47.838 257.257-40.050 345.147-28.706 28.706-58.426 47.028-88.636 54.786l84.676 84.676c3.446-5.324 7.42-10.348 11.996-14.926 19.742-19.742 45.006-30.596 71.192-30.596 0.158 0 0.322 0 0.48 0.002 25.71 0.132 50.26 10.592 69.128 29.46 39.744 39.744 35.386 87.114 26.216 140.43-6.3 36.638-3.858 55.9-3.418 58.8l16.124 55.622-56.532-15.154c-2.726-0.418-22.002-2.926-58.85 3.41-53.314 9.17-100.684 13.524-140.428-26.216-18.868-18.868-29.332-43.416-29.462-69.128-0.136-26.356 10.728-51.81 30.59-71.672l0.004-0.002c4.578-4.578 9.602-8.55 14.926-11.996l-84.676-84.676c-7.76 30.212-26.082 59.932-54.788 88.64-87.882 87.882-224.556 62.466-345.143 40.048-81.896-15.226-166.574-30.978-198.366 0.816-16.542 16.544-24.546 32.996-24.468 50.298 0.142 30.808 25.676 56.228 25.934 56.482l-0.168-0.16-46.888 49.142c-4.718-4.498-46.108-45.66-46.796-104.272-0.428-36.18 14.498-69.666 44.358-99.526l363.901-363.901-196.128-196.128-101.114 25.24-16.452-65.906 61.54-15.36-20.966-20.966-101.116 25.24-16.454-65.908 99.978-24.954 24.954-99.978 65.906 16.452-25.24 101.114 20.966 20.966 15.36-61.542 65.906 16.452-25.24 101.116 196.128 196.128 363.901-363.901c29.446-29.446 62.418-44.368 98.026-44.368 0.5 0 1 0.002 1.502 0.010 58.612 0.688 99.772 42.078 104.272 46.796l-49.144 46.892zM807.346 864.17c12.766 12.764 26.824 16.604 80.886 7.304 16.59-2.852 30.674-4.298 42.336-4.904 0.61-11.664 2.052-25.746 4.904-42.338 9.3-54.062 5.464-68.122-7.302-80.888-6.13-6.13-13.744-9.526-21.44-9.566-0.048 0-0.090 0-0.138 0-8.154 0-16.158 3.698-23.16 10.7-6.67 6.672-8.794 16.702-5.672 26.826l18.918 61.386-61.384-18.926c-10.124-3.12-20.15-0.994-26.822 5.672-7.040 7.042-10.74 15.098-10.698 23.296 0.042 7.692 3.44 15.308 9.572 21.438zM456.297 440.331l-278.089 278.093c38.918 2.23 81.432 10.116 124.974 18.212 109.186 20.304 222.096 41.3 284.693-21.298 41.77-41.77 50.756-82.662 24.032-109.386-16.878-16.88-46.008-23.904-62.458-7.452l-48.032-48.032c11.636-11.636 25.58-19.732 40.616-24.402l-85.736-85.736zM800.632 239.185c-8.096-43.542-15.98-86.056-18.214-124.972l-278.087 278.085 85.632 85.632c4.736-15.19 12.978-28.98 24.508-40.508l48.032 48.032c-16.452 16.454-9.428 45.58 7.452 62.46 7.58 7.578 20.64 16.326 39.95 14.994 21.372-1.484 45.384-14.978 69.432-39.026 62.596-62.598 41.602-175.51 21.296-284.697z" />
<glyph unicode="&#xe911;" glyph-name="diamond" d="M795.372 664.838h-566.744l-168.6-238.448 451.972-490.39 451.972 490.392-168.6 238.446zM761.332 599.076l96.922-137.074h-139.976l-47.714 137.074h90.768zM423.068 599.076h177.86l47.714-137.074h-273.286l47.712 137.074zM262.668 599.076h90.766l-47.714-137.074h-139.972l96.92 137.074zM177.25 396.24h129.816l104.662-254.406-234.478 254.406zM378.178 396.24h267.646l-133.824-325.294-133.822 325.294zM612.274 141.832l104.66 254.408h129.818l-234.478-254.408zM479.126 960h65.762v-189.178h-65.762v189.178zM224.237 927.847l133.766-133.766-46.5-46.5-133.766 133.766 46.5 46.5zM799.753 927.848l46.5-46.5-133.766-133.766-46.5 46.5 133.766 133.766z" />
<glyph unicode="&#xe912;" glyph-name="diploma" d="M1024 702.464l-257.534 257.536-766.466-766.466 257.536-257.534 311.132 311.132 114.682-114.682 19.768 124.43 124.43 19.768-114.682 114.682 311.134 311.134zM257.536 27.96l-165.574 165.576 270.458 270.458c-0.070-1.816-0.132-3.632-0.132-5.46 0-37.176 14.478-72.126 40.764-98.414 25.072-25.072 58.030-39.37 93.276-40.642l26.364-26.364-265.156-265.154zM553.906 406.098c-14.006-14.006-32.63-21.72-52.438-21.72s-38.428 7.714-52.434 21.72-21.72 32.63-21.72 52.434c0 19.81 7.714 38.428 21.72 52.434 14.004 14.006 32.628 21.72 52.434 21.72s38.43-7.714 52.438-21.72c14.006-14.006 21.72-32.628 21.72-52.434s-7.714-38.428-21.72-52.434zM646.3 313.7l-7.162-45.078-68.89 68.89c10.708 6.106 20.682 13.654 29.634 22.606s16.498 18.926 22.606 29.634l68.89-68.89-45.078-7.162zM666.886 437.31l-26.364 26.364c-1.272 35.248-15.57 68.206-40.642 93.274-26.288 26.288-61.24 40.766-98.416 40.766-1.828 0-3.644-0.062-5.46-0.134l270.462 270.46 165.574-165.576-265.154-265.154z" />
<glyph unicode="&#xe913;" glyph-name="doorknob" d="M553.786 379.516c-14.71 0-29.042-3.646-41.786-10.396-12.744 6.75-27.074 10.396-41.786 10.396-49.234 0-89.29-40.056-89.29-89.292 0-46.682 40.936-84.33 76.6-111.914 15.022-11.618 35.434-24.89 36.298-25.448l18.178-11.8 18.178 11.8c0.864 0.558 21.276 13.83 36.3 25.448 35.664 27.586 76.598 65.236 76.598 111.914 0 49.236-40.056 89.292-89.29 89.292zM525.62 231.134c-4.188-3.236-9.014-6.724-13.622-9.956-4.6 3.226-9.418 6.71-13.614 9.956-45.74 35.376-50.676 53.108-50.676 59.090 0 12.412 10.098 22.51 22.508 22.51 8.784 0 14.316-4.746 16.83-7.574l24.954-28.070 24.956 28.070c2.514 2.83 8.042 7.574 16.83 7.574 12.41 0 22.508-10.098 22.508-22.51 0-5.982-4.938-23.712-50.674-59.090zM512 960c-143.634 0-260.492-116.854-260.492-260.49v-33.392h180.716v33.392c0 43.988 35.786 79.774 79.776 79.774s79.776-35.786 79.776-79.774v-71.858l-340.266-120.004v-571.648h520.982v763.51c0 143.636-116.858 260.49-260.492 260.49zM705.71 2.782h-387.42v457.604l340.266 120.004v119.12c0 80.812-65.746 146.556-146.558 146.556-69.332 0-127.57-48.386-142.722-113.166h-48.106c15.868 90.96 95.402 160.318 190.83 160.318 106.81 0 193.71-86.896 193.71-193.708v-696.728z" />
<glyph unicode="&#xe914;" glyph-name="dove" d="M1001.36 473.47c-6.068 8.938-11.704 19.182-17.674 30.024-23.764 43.164-56.306 102.276-143.534 102.276-18.928 0-36.112-4.258-51.628-11.346-29.978 85.778-82.264 126.328-133.074 165.682-46.484 36.002-90.39 70.008-122.184 141.198l-23.86 53.424-32.006-48.986c-2.282-3.49-51.48-79.482-85.204-186.204-65.37 23.648-130.962 49.854-189.336 87.576l-37.564 24.278-10.75-43.414c-0.778-3.15-18.858-78.19 2.572-167.49 7.972-33.216 22.148-70.96 46.906-108.080 2.836-24.906 13.698-99.694 47.854-175.33 26.29-58.218 60.356-103.694 101.172-135.764-53.622-4.364-145.224-3.388-280.35 25.1l-72.7 15.322 38.926-63.288c2.090-3.4 52.364-84.032 152.476-150.522 59-39.184 123.224-65.43 190.898-78.012 30.994-5.764 62.696-8.64 94.982-8.64 55.456 0 112.636 8.49 170.91 25.426 183.63 53.37 234.894 213.656 272.324 330.692 19.332 60.444 37.592 117.536 65.828 128.328l37.656 14.39-22.64 33.36zM503.684 822.574c34.412-52.33 75.456-84.118 112.676-112.946 51.058-39.546 95.572-74.034 118.114-156.27-8.18-9.032-15.48-18.562-21.92-28.034-7.578 13.734-16.968 27.894-28.47 42.59-49.11 62.752-136.886 96.52-231.662 130.2 15.748 50.28 35.508 93.732 51.262 124.46zM859.706 316.844c-17.798-55.652-37.972-118.73-72.804-172.088-38.624-59.172-89.828-97.362-156.528-116.746-81.94-23.814-160.942-29.068-234.81-15.616-58.94 10.732-115.024 33.38-166.698 67.308-34.096 22.384-61.86 46.86-83.182 68.602 178.020-26.768 271.64-4.298 302.064 5.808 23.002-6.024 47.288-9.096 72.782-9.096v63.844c-92.922 0-163.52 51.51-209.834 153.1-10.006 21.948-17.798 44.036-23.86 64.594 31.222-22.898 69.336-43.472 115.858-59.96l21.33 60.176c-111.314 39.454-180.032 108.856-204.252 206.278-8.982 36.128-10.054 69.89-8.758 95.158 66.15-35.824 137.52-61.062 201.85-83.81 92.644-32.76 180.148-63.704 220.942-115.828 64.182-82.010 44.018-131.702 7.408-221.908-3.898-9.61-7.934-19.548-11.986-29.872l59.43-23.328c3.92 9.986 7.882 19.75 11.716 29.192 21.838 53.812 41.952 103.398 38.486 157 10.63 25.808 46.756 102.272 101.29 102.272 47.198 0 63.266-25.012 87.604-69.22 1.298-2.358 2.606-4.734 3.93-7.114-34.432-31.346-52.138-86.714-71.978-148.746zM874.248 473.292c0-11.754-9.528-21.282-21.282-21.282s-21.282 9.528-21.282 21.282c0 11.754 9.528 21.282 21.282 21.282s21.282-9.528 21.282-21.282z" />
<glyph unicode="&#xe915;" glyph-name="ring" d="M582.45 728.772l114.812 124.574-75.412 106.654h-219.7l-75.414-106.656 114.812-124.574c-186.802-33.374-329.044-197.024-329.044-393.274 0-220.282 179.212-399.496 399.494-399.496s399.496 179.214 399.496 399.496c0 196.252-142.242 359.902-329.044 393.276zM412.444 858.886l24.276 34.33h150.562l24.274-34.328-99.556-108.016-99.556 108.014zM511.998 2.782c-183.458 0-332.714 149.254-332.714 332.714s149.254 332.716 332.714 332.716 332.714-149.254 332.714-332.714-149.254-332.716-332.714-332.716z" />
<glyph unicode="&#xe916;" glyph-name="ring-1" d="M925.702 467.66v170.474h-210.532c-6.876 81.544-61.938 149.576-136.542 175.442l62.338 67.638-55.708 78.786h-146.514l-55.71-78.788 62.338-67.638c-74.602-25.864-129.666-93.896-136.542-175.442h-210.532v-170.474h-84.514v-531.658h996.432v531.66h-84.514zM473.312 893.218h77.376l4.568-6.462-43.256-46.934-43.258 46.932 4.57 6.464zM512 757.982c69.756 0 127.472-52.368 136-119.848h-272c8.528 67.48 66.244 119.848 136 119.848zM165.080 571.352h693.842v-103.692h-693.842v103.692zM943.434 2.782h-862.868v398.096h862.866v-398.096z" />
<glyph unicode="&#xe917;" glyph-name="eternity" d="M808.382 491.082c-135.166 0-247.004-106.806-296.382-162.848-49.376 56.040-161.216 162.848-296.378 162.848-118.894 0-215.622-96.728-215.622-215.62s96.728-215.618 215.62-215.618c135.166 0 247.002 106.806 296.38 162.844 49.376-56.040 161.214-162.844 296.382-162.844 118.894 0 215.618 96.726 215.618 215.618s-96.726 215.62-215.618 215.62zM403.804 209.78c-80.79-68.73-146.926-83.156-188.184-83.156-82.070 0-148.838 66.768-148.838 148.836s66.77 148.838 148.838 148.838c114.814 0 215.856-104.482 253.61-148.886-13.908-16.398-36.474-41-65.426-65.632zM808.382 126.626c-114.782 0-215.792 104.41-253.572 148.836 37.778 44.426 138.792 148.838 253.572 148.838 82.070 0 148.836-66.77 148.836-148.838 0-82.070-66.768-148.836-148.836-148.836zM439.402 559.688c22.442-17.356 53.124-37.302 54.418-38.144l18.18-11.8 18.178 11.8c1.296 0.842 31.98 20.788 54.418 38.144 51.432 39.782 110.47 93.626 110.47 157.422 0 65.64-53.404 119.046-119.046 119.046-22.882 0-45.070-6.618-64.022-18.708-18.952 12.092-41.14 18.708-64.022 18.708-65.642 0-119.046-53.404-119.046-119.046 0-63.794 59.040-117.64 110.472-157.422zM447.978 769.372c14.9 0 29.14-6.404 39.070-17.574l24.952-28.062 24.952 28.064c9.928 11.168 24.166 17.572 39.068 17.572 28.816 0 52.264-23.446 52.264-52.264 0-26.014-28.444-61.204-84.544-104.594-9.88-7.642-21.944-16.11-31.742-22.798-9.794 6.688-21.86 15.158-31.74 22.798-56.1 43.394-84.544 78.586-84.544 104.594 0 28.82 23.444 52.264 52.264 52.264z" />
<glyph unicode="&#xe918;" glyph-name="fireworks" d="M331.275 529.273l52.308 138.19-141.504-42.538-115.266 92.45-3.268-147.724-123.544-81.052 139.484-48.762 38.91-142.544 89.474 117.588 147.59-7.044-84.184 121.436zM238.37 478.137l-33.344-43.82-14.5 53.122-51.982 18.17 46.042 30.206 1.218 55.052 42.954-34.454 52.734 15.854-19.492-51.502 31.374-45.256-55.004 2.628zM900.458 569.649l-3.27 147.724-115.266-92.45-141.504 42.538 52.306-138.19-84.184-121.432 147.59 7.044 89.474-117.588 38.91 142.542 139.484 48.762-123.54 81.050zM833.476 487.435l-14.5-53.122-33.344 43.82-55.004-2.624 31.372 45.256-19.492 51.5 52.732-15.854 42.954 34.454 1.218-55.052 46.044-30.208-51.98-18.17zM542.251 572.131l-6.658 60.63-44.074-42.166-59.72 12.404 26.48-54.946-30.248-52.966 60.438 8.206 41.026-45.138 10.872 60.020 55.608 25.070zM499.891 692.683l36.934 48.54 60.928-2.906-34.752 50.126 21.592 57.046-58.414-17.56-47.58 38.162-1.35-60.98-50.998-33.458 57.578-20.13zM268.139 346.145c44.556-53.994 119.304-166.792 119.304-315.617h61.776c0 168.134-83.6 294.547-133.432 354.933l-47.648-39.316zM558.945 30.53h61.776c0 148.82 74.746 261.623 119.304 315.617l-47.648 39.318c-49.834-60.386-133.432-186.798-133.432-354.935zM453.007 369.931c24.828-108.768 22.040-247.184 20.194-338.781l61.764-1.244c1.906 94.614 4.786 237.598-21.73 353.769l-60.228-13.744z" />
<glyph unicode="&#xe919;" glyph-name="garland" d="M985.91 682.719c-136.852-91.002-300.725-139.106-473.911-139.106s-337.059 48.102-473.911 139.106l-38.088-57.276c21.004-13.968 42.608-26.966 64.718-39.052l38.682-301.895 222.1 208.21c16.772-3.278 33.69-6.11 50.736-8.492l138.496-270.933 138.928 271.783c16.578 2.422 33.030 5.264 49.346 8.538l223.052-209.108 39.094 305.107c20.070 11.168 39.704 23.108 58.85 35.84l-38.090 57.278zM154.524 426.709l-15.842 123.628c34.644-14.94 70.324-27.728 106.866-38.296l-91.024-85.332zM514.727 364.403l-57.218 111.934c18.060-0.99 36.226-1.506 54.488-1.506 20.166 0 40.21 0.644 60.122 1.852l-57.392-112.28zM874.93 426.709l-92.298 86.524c37.114 10.926 73.326 24.148 108.454 39.592l-16.156-126.116z" />
<glyph unicode="&#xe91a;" glyph-name="gift" d="M797.524 771.136c9.906 18.15 15.544 38.948 15.544 61.042 0.002 70.482-57.34 127.822-127.82 127.822-52.13 0-105.47-26.936-146.336-73.902-10.114-11.622-19.122-24.112-26.912-37.12-7.79 13.008-16.798 25.498-26.912 37.12-40.866 46.966-94.204 73.902-146.336 73.902-70.48 0-127.822-57.342-127.822-127.822 0-22.092 5.636-42.892 15.544-61.042h-174.074v-371.822h59.974v-463.314h799.254v463.314h59.972v371.822h-174.076zM338.752 893.218c60.598 0 118.212-61.986 134.978-122.080h-134.978c-33.656 0-61.040 27.38-61.040 61.042 0.002 33.656 27.384 61.038 61.040 61.038zM478.608 2.782h-299.452v396.532h299.454v-396.532zM478.608 466.098h-359.426v238.256h359.426v-238.256zM685.248 893.218c33.656 0 61.040-27.384 61.040-61.040 0-33.658-27.384-61.042-61.040-61.042h-134.978c16.766 60.096 74.378 122.082 134.978 122.082zM844.844 2.782v0h-299.452v396.532h299.454v-396.532zM904.818 466.096h-359.426v238.258h359.426v-238.258z" />
<glyph unicode="&#xe91b;" glyph-name="heart" d="M937.528 509.964c8.41 28.178 12.552 58.062 12.552 90.522 0 74.236-27.366 142.766-77.060 192.966-51.128 51.652-122.84 80.096-201.924 80.096-76.076 0-147.49-35.538-196.054-95.318-48.564 59.782-119.978 95.318-196.054 95.318-79.082 0-150.796-28.444-201.926-80.096-49.694-50.2-77.062-118.732-77.062-192.966 0-149.656 87.466-238.832 259.722-360.532 112.44-79.444 171.592-146.136 187.068-170.156l28.162-45 28.254 44.854c0.28 0.436 26.884 41.032 100.806 103.732 6.988-5.156 14.23-10.382 21.796-15.73 70.526-49.832 95.526-85.354 97.312-87.97l27.854-47.23 28.506 47.208c1.662 2.442 26.606 38.024 97.326 87.992 97.624 68.974 147.194 120.058 147.194 207.846 0 64.258-34.122 117.592-86.472 144.464zM475.046 141.388c-29.34 33.398-84.19 87.682-176.79 153.106-91.892 64.924-145.662 111.42-179.788 155.472-35.746 46.146-51.688 92.568-51.688 150.52 0 56.524 20.506 108.37 57.742 145.984 39.050 39.446 92.462 60.296 154.464 60.296 68.662 0 132.472-40.020 166.534-104.444l29.52-55.832 29.52 55.832c34.062 64.422 97.874 104.444 166.536 104.444 62.004 0 115.414-20.85 154.462-60.296 37.234-37.614 57.74-89.46 57.74-145.984 0-26.23-3.322-50.128-10.070-72.412-5.156 0.432-10.38 0.684-15.69 0.684-40.014 0-77.848-16.242-106.232-44.218-28.382 27.978-66.218 44.218-106.232 44.218-94.902 0-166.466-70.184-166.466-163.254 0-61.57 24.418-105.084 72.662-149.38-34.94-30.352-59.662-55.878-76.224-74.736zM838.268 212.196c-41.192-29.104-68.984-54.228-86.962-72.828-17.978 18.598-45.77 43.724-86.962 72.828-92.274 65.19-118.954 99.576-118.954 153.304 0 56.802 40.994 96.472 99.684 96.472 31.52 0 60.912-18.562 76.71-48.444l29.52-55.832 29.52 55.832c15.798 29.88 45.192 48.444 76.71 48.444 58.69 0 99.68-39.672 99.68-96.472 0.004-53.728-26.676-88.116-118.946-153.304z" />
<glyph unicode="&#xe91c;" glyph-name="heart-1" d="M1007.276 320.4c-21.328 31.128-68.384 53.662-136.484 23.576-22.536-9.956-76.49-32.97-111.054-47.674-1.918 2.842-3.97 5.576-6.188 8.164-12.23 14.258-34.668 31.254-72.11 31.254-61.646 0-142.85 10.734-221.38 21.114-78.244 10.342-152.15 20.11-209.11 20.11h-239.708v-66.050h239.708c52.612 0 124.426-9.492 200.454-19.54 80.65-10.66 164.046-21.684 230.036-21.684 10.050 0 17.242-2.684 21.98-8.208 4.572-5.332 7.198-13.724 7.198-23.026 0-17.652-9.998-43.908-37.542-43.908h-263.832v-66.050h263.83c62.124 0 100.27 51.32 103.364 103.156 33.45 14.216 95.706 40.734 121.044 51.928 39.148 17.296 52.23 3.996 55.304-0.494 10.006-14.604 6.504-44.666-16.598-67.77-99.726-99.726-261.714-200.352-398.798-200.352-141.522 0-424.258 105.552-427.098 106.618l-11.402 4.282-98.89-35.806 22.486-62.106 76.092 27.552c56.528-20.602 300.76-106.59 438.816-106.59 166.666 0 344.154 118.35 445.502 219.698 43.434 43.436 53.918 108.7 24.38 151.806zM386.018 562.218c74.358-52.54 100.576-89.99 102.348-92.596l27.57-46.582 28.182 46.562c1.66 2.446 27.828 39.952 102.362 92.616 101.63 71.806 153.236 124.92 153.236 215.954 0 45.832-16.966 88.214-47.774 119.336-31.662 31.984-75.882 49.596-124.518 49.596-41.998 0-81.682-17.314-111.174-47.068-29.494 29.754-69.178 47.068-111.174 47.068-48.636 0-92.858-17.614-124.52-49.598-30.808-31.124-47.776-73.504-47.776-119.336 0-91.030 51.604-144.146 153.238-215.952zM327.498 851.040c19.438 19.634 46.264 30.014 77.576 30.014 33.7 0 65.11-19.818 81.978-51.72l29.196-55.22 29.196 55.22c16.868 31.902 48.278 51.72 81.978 51.72 31.314 0 58.138-10.378 77.574-30.014 18.486-18.672 28.666-44.554 28.666-72.87 0-57-28.104-93.338-125.298-162.010-44.096-31.158-73.446-57.906-92.116-77.41-18.668 19.502-48.018 46.252-92.118 77.41-97.196 68.67-125.3 105.010-125.3 162.008 0.002 28.318 10.182 54.198 28.668 72.872z" />
<glyph unicode="&#xe91d;" glyph-name="high-heel" d="M950.654 855.262l-16.536 17.068-21.544-10.030c-157.66-73.414-271.53-147.81-358.344-234.128-82.198-81.726-134.262-168.566-184.682-257.77-1.252-2.214-7.518-5.466-21.058-7.338-18.378-2.542-43.264-1.71-69.604-0.828-58.784 1.968-125.412 4.198-177.628-26.42-68.136-39.95-101.258-113.464-101.258-224.742v-23.052l21.556-8.17c6.050-2.296 150.044-56.18 310.684-56.18 87.746 0 139.78 11.518 179.608 39.758 40.784 28.922 65.142 71.99 95.822 141.356 50.104 113.326 95.382 186.818 139.674 234.382 43.696-101.194 53.978-303.818 53.998-382.112l0.008-33.386h127.748l1.398 31.93c8.998 205.486 40.858 327.57 64.12 416.714 16.416 62.908 29.384 112.592 29.384 167.238 0 138.41-70.352 212.62-73.346 215.71zM930 489.182c-21.88-83.844-51.126-195.916-63.196-375.894-1.282 32.828-3.804 77.132-8.778 125.050-11.47 110.57-31.052 193.052-58.336 245.976 44.614 29.558 89.776 38.236 139.47 40.412-2.852-11.376-5.936-23.188-9.16-35.544zM953.378 591.946c-68.078-1.538-139.434-12.52-207.26-63.828-70.236-53.132-133.636-147.292-199.526-296.322-25.854-58.45-45.206-93.914-73.374-113.888-27.498-19.498-68.344-27.454-140.978-27.454-113.012 0-219.96 29.916-264.838 44.3 1.984 36.632 8.712 67.13 20.080 90.88 11.052 23.094 26.608 40.29 47.556 52.574 35.532 20.834 91.89 18.942 141.614 17.284 64.242-2.158 124.908-4.18 151.038 42.048 49.868 88.23 97.356 167.438 173.63 243.274 76.73 76.29 177.326 143.206 315.198 209.474 16.226-25.174 40.7-75.6 40.7-150.734 0-15.714-1.396-31.42-3.84-47.608z" />
<glyph unicode="&#xe91e;" glyph-name="key" d="M545.392 629.096c12.376 8.348 30.092 20.6 44.644 31.858 56.164 43.44 120.632 102.142 120.632 171.074 0.002 70.564-57.408 127.972-127.972 127.972-25.356 0-49.92-7.56-70.696-21.328-20.776 13.768-45.34 21.328-70.694 21.328-70.564 0-127.974-57.408-127.974-127.974 0-68.93 64.468-127.632 120.632-171.074 14.554-11.256 32.268-23.508 44.644-31.856v-693.096h200.27v66.782h-133.488v96.396h133.488v66.782h-133.488v463.136zM511.998 687.142c-11.168 7.596-25.516 17.614-37.176 26.636-62.844 48.608-94.708 88.394-94.708 118.25 0 33.74 27.45 61.19 61.19 61.19 17.446 0 34.118-7.498 45.74-20.572l24.956-28.068 24.954 28.066c11.622 13.074 28.294 20.572 45.74 20.572 33.74 0 61.19-27.45 61.19-61.19 0-29.858-31.864-69.64-94.708-118.248-11.64-9.006-26-19.034-37.178-26.636z" />
<glyph unicode="&#xe91f;" glyph-name="kiss" d="M992.926 498.499c-13.692 6.332-42.73 39.898-68.35 69.512-39.984 46.222-89.748 103.744-144.598 139.208-95.758 61.912-197.528 68.376-267.977 19.342-70.45 49.028-172.226 42.564-267.977-19.342-54.85-35.462-104.614-92.986-144.598-139.208-25.62-29.614-54.658-63.18-68.35-69.512l-31.076-14.372 15.876-30.332c1.7-3.25 42.57-80.456 123.472-158.090 108.232-103.864 237.094-158.766 372.653-158.766s264.421 54.9 372.653 158.766c80.904 77.636 121.772 154.84 123.472 158.090l15.876 30.332-31.076 14.372zM148.732 525.357c39.212 45.324 83.658 96.7 130.692 127.11 80.048 51.758 162.376 55.136 209.734 8.624l22.844-22.438 22.844 22.438c47.354 46.518 129.682 43.136 209.734-8.624 47.036-30.41 91.48-81.784 130.694-127.11 7.214-8.336 14.116-16.316 20.764-23.848h-768.068c6.648 7.532 13.55 15.512 20.764 23.848zM839.51 342.749c-42.79-41.066-89.092-73.718-137.612-97.052-60.098-28.902-123.992-43.556-189.898-43.556-119.454 0-229.142 46.83-326.029 139.188-35.764 34.094-63.16 68.5-81.946 94.986h816.010c-18.466-26.044-45.326-59.788-80.526-93.566z" />
<glyph unicode="&#xe920;" glyph-name="microphone" d="M976.826 723.46c0 63.212-24.618 122.646-69.318 167.342-84.18 84.184-216.512 91.548-309.14 22.138l-14.262 14.262-47.684-47.682 14.24-14.24c-32.81-43.688-49.396-97.19-46.916-152.282l-423.876-455.564 77.63-77.63c-36.486-42.752-42.916-71.104-48.68-96.578-5.95-26.286-11.090-48.986-61.644-99.542l47.682-47.684c64.34 64.342 72.514 100.464 79.73 132.338 4.494 19.848 8.256 36.424 30.716 63.66l68.832-68.832 455.564 423.88c3.594-0.162 7.186-0.266 10.764-0.266 51.268 0 100.676 16.524 141.508 47.188l14.248-14.248 47.682 47.682-14.242 14.242c30.604 40.706 47.166 89.984 47.166 141.816zM275.822 156.846l-102.276 102.274 365.818 393.162 129.62-129.622-393.162-365.814zM732.604 554.414l-161.49 161.49c-1.636 36.138 8.194 71.318 27.92 101.004l234.572-234.574c-29.68-19.728-64.858-29.552-101.002-27.92zM881.298 630.010l-234.56 234.562c65.678 43.51 155.268 36.368 213.086-21.45 31.964-31.964 49.566-74.462 49.566-119.66 0-33.748-9.82-65.98-28.092-93.452zM427.596 353.981l-56.899 56.899 47.683 47.683 56.899-56.899-47.683-47.683z" />
<glyph unicode="&#xe921;" glyph-name="music" d="M826.714 691.529c46.2 35.728 99.23 84.192 99.23 142.316 0 60.198-48.974 109.172-109.172 109.172-20.156 0-39.724-5.598-56.64-15.868-16.916 10.266-36.488 15.868-56.64 15.868-60.196 0-109.17-48.974-109.17-109.172 0-58.118 53.028-106.586 99.226-142.316 19.982-15.454 47.256-33.182 48.406-33.93l18.178-11.798 18.178 11.796c1.148 0.746 28.428 18.476 48.404 33.932zM760.127 725.804c-8.176 5.62-17.764 12.394-25.722 18.55-33.438 25.862-73.302 62.382-73.302 89.488 0 23.374 19.016 42.39 42.386 42.39 12.084 0 23.632-5.196 31.686-14.254l24.952-28.062 24.954 28.060c8.056 9.060 19.608 14.256 31.688 14.256 23.374 0 42.39-19.016 42.39-42.39 0-27.11-39.862-63.626-73.308-89.49-7.958-6.154-17.544-12.928-25.724-18.548zM934.494 546.437c-14.768 0-29.152-3.664-41.942-10.452-12.788 6.788-27.174 10.452-41.944 10.452-49.352 0-89.504-40.152-89.504-89.506 0-46.804 41.064-84.566 76.842-112.242 15.076-11.656 35.564-24.976 36.426-25.538l18.18-11.8 18.18 11.8c0.864 0.562 21.352 13.88 36.424 25.54 35.776 27.668 76.844 65.432 76.844 112.24 0 49.354-40.154 89.506-89.506 89.506zM906.298 397.517c-4.226-3.27-9.1-6.788-13.748-10.046-4.648 3.26-9.524 6.776-13.75 10.046-45.956 35.544-50.916 53.388-50.916 59.412 0 12.53 10.194 22.724 22.722 22.724 8.864 0 14.45-4.79 16.99-7.648l24.954-28.066 24.954 28.066c2.54 2.856 8.122 7.648 16.988 7.648 12.53 0 22.724-10.194 22.724-22.724 0.002-6.022-4.96-23.87-50.918-59.412zM152.072 547.025v-407.337c-10.13 2.872-20.946 4.376-32.096 4.376-27.77 0-55.238-9.042-77.352-25.462-24.714-18.352-40.15-44.39-42.354-71.436-2.21-27.076 9.222-53.74 30.59-71.33 17.908-14.738 42.076-22.856 68.052-22.856 12.072 0 24.214 1.744 36.094 5.184 40.454 11.72 83.93 47.686 83.846 98.962h0.002v331.527l353.435 55.18v-238.538c-10.134 2.872-20.946 4.376-32.098 4.376-27.772 0-55.24-9.042-77.346-25.458-24.714-18.346-40.152-44.384-42.36-71.438-2.21-27.074 9.222-53.74 30.59-71.332 17.906-14.736 42.076-22.854 68.052-22.854 12.080 0 24.226 1.746 36.090 5.182 40.454 11.718 83.93 47.678 83.852 98.962h0.002v0.102h0.002l-0.002 500.221-486.999-76.030zM116.424 22.316c-5.836-1.692-11.73-2.548-17.51-2.548-10.38 0-19.718 2.784-25.614 7.634-4.484 3.69-6.9 9.050-6.468 14.338 0.624 7.654 6.606 16.562 15.61 23.25 10.522 7.814 24.204 12.292 37.536 12.292 10.386 0 19.728-2.784 25.626-7.64 4.038-3.322 6.456-8.034 6.468-12.6 0.042-15.26-18.094-29.642-35.648-34.726zM218.854 456.243v33.616l353.435 55.18v-33.616l-353.435-55.18zM536.633 87.92c-5.826-1.69-11.716-2.546-17.504-2.546-10.382 0-19.718 2.782-25.612 7.63-4.484 3.69-6.904 9.052-6.472 14.336 0.626 7.658 6.608 16.566 15.614 23.254 10.52 7.812 24.2 12.29 37.532 12.29 10.386 0 19.728-2.784 25.626-7.64 4.038-3.322 6.458-8.036 6.472-12.598 0.040-15.258-18.094-29.64-35.656-34.726z" />
<glyph unicode="&#xe922;" glyph-name="padlock" d="M777.296 579.366v115.338c0 146.282-119.010 265.296-265.296 265.296s-265.296-119.014-265.296-265.298v-115.338h-96.060v-282.010c0-199.25 162.104-361.354 361.356-361.354s361.356 162.104 361.356 361.356v282.010h-96.060zM313.486 694.702c0 109.462 89.052 198.516 198.514 198.516s198.514-89.054 198.514-198.516v-115.338h-397.028v115.338zM512 2.782c-162.428 0-294.574 132.146-294.574 294.574v215.228h589.146v-215.228h0.002c0-162.428-132.146-294.574-294.574-294.574zM562.916 391.76c-18.050 0-35.596-4.828-50.916-13.712-15.32 8.884-32.866 13.712-50.916 13.712-55.972 0-101.51-45.536-101.51-101.51 0-53.71 48.368-98.010 90.506-130.6 18.070-13.976 42.7-29.988 43.74-30.66l18.178-11.798 18.178 11.798c1.040 0.674 25.672 16.684 43.74 30.66 42.138 32.592 90.506 76.89 90.506 130.6 0.002 55.974-45.534 101.51-101.506 101.51zM533.058 212.474c-6.49-5.020-14.198-10.504-21.058-15.246-6.86 4.742-14.572 10.226-21.060 15.246-53.378 41.286-64.582 65.080-64.582 77.776 0 19.148 15.578 34.726 34.726 34.726 10.044 0 19.264-4.148 25.96-11.678l24.956-28.072 24.954 28.070c6.696 7.53 15.914 11.678 25.96 11.678 19.148 0 34.726-15.578 34.726-34.726 0.002-12.692-11.202-36.49-64.582-77.774z" />
<glyph unicode="&#xe923;" glyph-name="camera" d="M729.564 514.068v42.766h135.204v246.102h-337.196v-246.1h135.206v-42.766h-222.496v102.532h-205.656v-102.532h-106.966v-578.070h768.68v578.068h-166.776zM594.356 623.618v112.536h203.63v-112.536h-203.63zM301.412 549.816h72.090v-35.748h-72.090v35.748zM194.444 2.782v444.504h635.114v-444.502h-635.114zM512.002 389.014c-90.42 0-163.98-73.562-163.98-163.978 0.002-90.42 73.564-163.98 163.98-163.98s163.978 73.56 163.978 163.98c0 90.416-73.562 163.978-163.978 163.978zM512.002 127.838c-53.596 0-97.198 43.602-97.198 97.198 0.002 53.594 43.604 97.196 97.198 97.196s97.196-43.602 97.196-97.196c-0.002-53.596-43.604-97.198-97.196-97.198zM662.774 960h66.782v-100.954h-66.782v100.954zM553.824 954.050l71.383-71.383-47.222-47.222-71.383 71.383 47.222 47.222zM838.514 954.061l47.222-47.222-71.383-71.383-47.222 47.222 71.383 71.383z" />
<glyph unicode="&#xe924;" glyph-name="marker" d="M511.97 960c-177.62 0-322.124-145.85-322.124-325.128 0-72.358 49.97-204.908 148.524-393.964 72.096-138.302 145.196-258.354 145.924-259.552l27.672-45.356 27.676 45.354c0.73 1.198 73.844 121.248 145.956 259.552 98.574 189.058 148.556 321.608 148.556 393.966 0 179.278-144.532 325.128-322.184 325.128zM511.97 61.406c-91.198 155.136-257.286 460.934-257.286 573.468 0 143.524 115.42 260.288 257.286 260.288 141.902 0 257.35-116.764 257.35-260.29-0.004-112.484-166.13-418.31-257.35-573.466zM572.372 766.002c-21.554 0-42.462-6.174-60.37-17.47-17.908 11.294-38.816 17.47-60.37 17.47-62.41 0-113.188-50.776-113.188-113.19 0-60.562 55.862-111.536 104.532-149.176 21.192-16.388 50.154-35.22 51.376-36.012l17.65-11.456 17.65 11.456c1.222 0.794 30.186 19.624 51.376 36.012 48.67 37.64 104.532 88.614 104.532 149.176 0 62.412-50.778 113.19-113.188 113.19zM541.36 554.922c-9.124-7.058-20.234-14.868-29.36-21.106-9.118 6.234-20.216 14.036-29.358 21.106-52.658 40.728-79.36 73.664-79.36 97.89 0 26.662 21.69 48.352 48.35 48.352 13.782 0 26.958-5.924 36.142-16.256l24.228-27.252 24.228 27.252c9.186 10.332 22.358 16.256 36.142 16.256 26.66 0 48.35-21.69 48.35-48.352 0-24.226-26.7-57.16-79.362-97.89z" />
<glyph unicode="&#xe925;" glyph-name="room-service" d="M984.186 266.426c-24.906 210.248-187.504 378.872-394.848 412.932 9.042 14.198 14.304 31.028 14.304 49.072 0 50.532-41.112 91.644-91.644 91.644s-91.644-41.112-91.644-91.644c0-18.044 5.264-34.874 14.304-49.072-207.342-34.058-369.942-202.684-394.844-412.932h-39.814v-66.782h36.468v-123.718h951.064v123.718h36.468v66.782h-39.814zM512 753.292c13.708 0 24.86-11.152 24.86-24.86s-11.152-24.864-24.86-24.864c-13.708 0-24.86 11.154-24.86 24.864s11.152 24.86 24.86 24.86zM512 618.898c206.292 0 377.35-153.624 404.858-352.472h-809.716c27.508 198.848 198.566 352.472 404.858 352.472zM920.75 142.706h-817.5v56.934h817.5v-56.934z" />
<glyph unicode="&#xe926;" glyph-name="rose" d="M724.737 357.489c-24.406 29.206-47.934 61.754-59.996 82.212 12.31 8.782 22.58 19.152 30.83 31.17 39.372 57.34 17.828 131.786-1.802 182.796-25.968 67.482-5.624 131.532 4.152 162.314 0.72 2.266 1.376 4.334 1.946 6.184l18.482 60.022-59.844-19.054c-2.022-0.644-12.966-4.176-29.782-10.374-49.402 31.826-91.7 79.046-92.156 79.558l-24.568 27.684-24.568-27.688c-0.474-0.532-43.868-49.098-94.434-81.010-12.862 5.934-22.23 9.796-25.148 10.976l-64.050 25.918 20.336-66.036c0.572-1.85 1.226-3.918 1.946-6.184 9.778-30.782 30.122-94.832 4.152-162.314-19.63-51.010-41.176-125.458-1.802-182.798 8.25-12.016 18.52-22.386 30.83-31.17-12.062-20.46-35.59-53.006-59.996-82.212l-35.742-42.772 54.728-10.552c21.576-4.158 41.758-6.256 60.684-6.254 38.316 0.002 71.43 8.608 100.218 26.12v-388.027h65.698v388.027c28.786-17.51 61.896-26.114 100.218-26.114 18.924 0 39.116 2.098 60.684 6.254l54.726 10.554-35.742 42.77zM511.999 863.342c11.876-11.542 27.42-25.752 45.182-39.868-20.176-9.096-41.92-19.65-63.86-31.59-10.76 8.808-22.88 17.144-35.24 24.812 21.404 16.268 40.134 33.25 53.918 46.646zM432.659 755.024c-8.32-5.692-16.47-11.586-24.358-17.672-0.574 12.164-1.874 23.7-3.592 34.448 9.552-5.276 19.104-10.936 27.95-16.776zM387.457 363.863c0.466 0.64 0.936 1.284 1.404 1.928 14.374 19.81 24.142 35.12 30.752 47.288 16.27-4.128 34.314-6.96 54.17-8.51-18.754-21.484-43.978-38.616-86.326-40.706zM550.439 404.585c19.768 1.554 37.736 4.38 53.946 8.492 6.61-12.17 16.378-27.48 30.752-47.288 0.564-0.78 1.132-1.554 1.694-2.328-30.47 1.458-60.098 11.918-86.392 41.124zM641.411 508.055c-17.616-25.656-62.366-39.216-129.412-39.216s-111.794 13.56-129.412 39.216c-15.752 22.94-13.652 60.708 6.444 115.336 40.036 66.404 152.972 123.794 231.528 155.814-7.37-40.38-9.572-93.352 11.896-149.138 22.414-58.236 25.344-98.148 8.956-122.012z" />
<glyph unicode="&#xe927;" glyph-name="suitcase" d="M686.704 756.426v22.82c0 63.246-51.454 114.696-114.696 114.696h-120.012c-63.246 0-114.696-51.452-114.696-114.696v-22.82h-337.3v-754.37h1024v754.37h-337.296zM404.080 779.246c0 26.42 21.496 47.914 47.914 47.914h120.012c26.422 0 47.914-21.496 47.914-47.914v-22.82h-215.84v22.82zM228.988 68.842h-162.206v620.802h162.206v-126.866l-124.060-34.298 65.738-237.78 58.322 16.124v-237.982zM435.72 550.64l30.146-109.040-248.626-68.738-30.148 109.040 248.628 68.738zM728.226 68.84h-432.454v256.444l252.258 69.742-65.738 237.78-186.522-51.568v108.404h432.458v-289.666l-117.614 18.418-35.536-226.93 153.148-23.982v-98.642zM830.116 316.43l-14.872-94.976-163.854 25.66 14.872 94.974 163.854-25.658zM957.218 68.84h-162.206v88.186l75.88-11.882 35.536 226.932-111.416 17.446v300.12h162.206v-620.802z" />
<glyph unicode="&#xe928;" glyph-name="toast" d="M879.428 38.836l-72.124-12.718-51.658 292.972c72.12 28.47 116.888 104.746 102.912 184.008l-56.902 322.732-289.654-51.072-289.652 51.072-56.906-322.732c-13.976-79.262 30.792-155.538 102.912-184.008l-51.658-292.972-72.124 12.718-11.602-65.8 210.044-37.036 11.602 65.8-72.12 12.718 51.664 293.008c77.5 2.094 145.66 58.422 159.634 137.676l18.204 103.242 18.206-103.244c13.976-79.26 82.128-135.582 159.634-137.676l51.664-293.008-72.12-12.718 11.602-65.8 210.042 37.036-11.6 65.802zM427.998 456.804c-9.566-54.244-61.48-90.598-115.722-81.030-48.952 8.632-83.318 51.754-82.53 99.952l204.388 15.866-6.136-34.788zM446.114 559.54l-205.686-15.966 36.122 204.854 196.75-34.692-27.186-154.196zM550.704 713.732l196.752 34.692 36.12-204.854-205.686 15.966-27.186 154.196zM711.73 375.774c-54.248-9.564-106.156 26.784-115.722 81.030l-6.134 34.788 204.388-15.866c0.784-48.198-33.58-91.32-82.532-99.952zM478.604 960h66.816v-103.89h-66.816v103.89zM364.827 953.208l73.459-73.459-47.246-47.246-73.459 73.459 47.246 47.246zM659.155 953.213l47.246-47.246-73.459-73.459-47.246 47.246 73.459 73.459z" />
<glyph unicode="&#xe929;" glyph-name="tuxedo" d="M736.366 849.322l-84.968 55.494-20.82-58.254-82.622-29.048c-11.026 4.81-23.18 7.494-35.956 7.494s-24.932-2.684-35.956-7.494l-82.622 29.050-20.822 58.25-84.966-55.494-287.634-25.002 161.248-833.132h701.506l161.246 833.132-287.634 25.004zM669.822 609.16l14.142 21.682c2.746 4.21 26.83 42.902 26.83 103.918 0 22.302-3.224 41.604-7.44 57.346l85.604-55.908-103.134-136.82 56.456-56.83-161.608-231.464 68.304 305.406 20.846-7.33zM597.064 764.866l41.28 14.514c3.456-11.424 6.496-26.594 6.496-44.62s-3.042-33.198-6.496-44.62l-41.28 14.514c3.344 9.422 5.182 19.55 5.182 30.106s-1.838 20.684-5.182 30.106zM512.002 759.054c13.396 0 24.292-10.898 24.292-24.29s-10.898-24.292-24.292-24.292-24.29 10.898-24.29 24.292 10.894 24.29 24.29 24.29zM385.658 779.382l41.28-14.516c-3.344-9.422-5.182-19.55-5.182-30.106-0.002-10.552 1.836-20.682 5.182-30.104l-41.28-14.514c-3.456 11.422-6.496 26.594-6.496 44.62s3.040 33.196 6.496 44.62zM320.646 792.108c-4.216-15.744-7.44-35.046-7.44-57.348 0-61.016 24.084-99.708 26.832-103.918l14.14-21.682 20.848 7.33 68.304-305.408-161.606 231.464 56.454 56.83-103.138 136.822 85.606 55.91zM479.024 57.136h-263.364l-136.992 707.818 92.042 8-30.802-20.118 111.204-147.522-54.996-55.362 282.91-405.202v-87.614zM437.68 638.52l38.362 13.488c11.026-4.81 23.18-7.494 35.958-7.494s24.932 2.686 35.958 7.496l38.36-13.488-74.318-332.306-74.32 332.304zM808.344 57.136h-263.366v87.612l282.91 405.2-54.994 55.362 111.202 147.522-30.802 20.118 92.040-7.998-136.99-707.816z" />
<glyph unicode="&#xe92a;" glyph-name="wedding" d="M708.158 606.132c-74.062 0-142.24-25.636-196.158-68.482-53.918 42.848-122.096 68.482-196.158 68.482-174.158 0-315.842-141.686-315.842-315.842s141.684-315.842 315.842-315.842c74.062 0 142.24 25.636 196.158 68.482 53.918-42.848 122.096-68.482 196.158-68.482 174.158 0 315.842 141.686 315.842 315.842s-141.684 315.842-315.842 315.842zM315.844 41.232c-137.334 0-249.062 111.728-249.062 249.060 0 137.33 111.728 249.056 249.060 249.056 55.438 0 106.698-18.216 148.128-48.964-44.754-54.516-71.652-124.22-71.652-200.092 0-75.874 26.9-145.578 71.654-200.094-41.428-30.75-92.69-48.966-148.128-48.966zM459.1 290.29c0 57.766 19.772 111 52.9 153.296 33.126-42.296 52.9-95.528 52.9-153.296s-19.774-111-52.9-153.296c-33.126 42.298-52.9 95.532-52.9 153.296zM708.158 41.232c-55.438 0-106.7 18.216-148.128 48.966 44.754 54.516 71.654 124.22 71.654 200.094 0 75.872-26.898 145.578-71.652 200.092 41.428 30.75 92.69 48.966 148.128 48.966 137.33 0 249.060-111.728 249.060-249.056-0.002-137.336-111.73-249.062-249.062-249.062zM442.882 659.532c21.014-16.254 49.726-34.92 50.938-35.706l18.18-11.8 18.18 11.8c1.212 0.788 29.92 19.452 50.938 35.706 48.406 37.438 103.97 88.17 103.97 148.684 0 62.492-50.842 113.334-113.334 113.334-21.302 0-41.976-6.026-59.752-17.056-17.776 11.032-38.448 17.056-59.752 17.056-62.492 0-113.334-50.842-113.334-113.334-0.004-60.514 55.56-111.246 103.966-148.684zM452.248 854.768c13.27 0 25.954-5.706 34.798-15.652l24.954-28.070 24.954 28.068c8.844 9.946 21.528 15.652 34.798 15.652 25.668 0 46.552-20.882 46.552-46.552 0-23.554-26.258-55.806-78.044-95.858-8.766-6.778-19.388-14.262-28.26-20.342-8.874 6.078-19.496 13.562-28.26 20.342-51.786 40.052-78.044 72.304-78.044 95.858 0 25.67 20.882 46.554 46.552 46.554z" />
<glyph unicode="&#xe92b;" glyph-name="arch" d="M217.972 515.494c0-21.967-17.807-39.774-39.774-39.774s-39.774 17.807-39.774 39.774c0 21.967 17.807 39.774 39.774 39.774s39.774-17.807 39.774-39.774zM909.048 362.936c23.71 0.344 45.954 9.744 62.758 26.55 17.012 17.012 26.304 39.458 26.584 62.794 16.308 16.702 25.612 39.148 25.612 63.214 0 24.064-9.302 46.512-25.608 63.212-0.282 23.336-9.574 45.784-26.586 62.798-17.014 17.010-39.456 26.302-62.794 26.582-12.358 12.064-27.866 20.282-44.842 23.748-20.922 70.622-63.2 134.208-120.836 181.016-65.132 52.892-147.288 82.022-231.336 82.022s-166.204-29.128-231.332-82.020c-57.636-46.808-99.914-110.394-120.836-181.016-16.976-3.466-32.486-11.684-44.842-23.748-23.336-0.282-45.782-9.574-62.794-26.584-17.012-17.012-26.304-39.46-26.586-62.796-16.308-16.702-25.61-39.148-25.61-63.212 0-24.068 9.302-46.514 25.608-63.214 0.28-23.336 9.574-45.782 26.584-62.794 16.804-16.806 39.048-26.204 62.758-26.55 8.61-8.414 18.758-14.95 29.858-19.324v-244.598l-110.664-110.664 47.222-47.222 110.664 110.664h639.936l110.664-110.664 47.222 47.222-110.664 110.664v244.596c11.102 4.374 21.248 10.91 29.86 19.324zM198.552 415.43c-4.406-7.112-12.012-11.36-20.348-11.36s-15.944 4.248-20.35 11.362l-12.646 20.416-23.378-5.494c-8.198-1.93-16.6 0.546-22.41 6.356-5.89 5.89-8.264 14.272-6.352 22.418l5.49 23.376-20.416 12.644c-7.112 4.404-11.358 12.010-11.358 20.346 0 8.334 4.248 15.944 11.36 20.348l20.412 12.646-5.49 23.376c-1.912 8.146 0.464 16.526 6.35 22.414 5.89 5.89 14.268 8.268 22.418 6.354l23.374-5.49 12.644 20.412c4.406 7.112 12.012 11.36 20.35 11.36s15.946-4.246 20.348-11.358l12.644-20.414 23.374 5.49c8.15 1.906 16.528-0.464 22.418-6.354s8.266-14.272 6.354-22.416l-5.49-23.376 20.414-12.646c7.112-4.406 11.36-12.012 11.36-20.348s-4.246-15.944-11.358-20.348l-20.416-12.644 5.49-23.376c1.912-8.148-0.464-16.528-6.352-22.416-5.808-5.808-14.2-8.288-22.416-6.354l-23.376 5.492-12.644-20.416zM211.594 118.574c0 0 0 225.036 0 225.036 11.102 4.374 21.248 10.91 29.858 19.326 11.394 0.166 22.436 2.442 32.71 6.606 21.254-31.902 23.302-80.424 23.47-250.968h-86.038zM304.208 641.504c-17.014 17.010-39.456 26.302-62.794 26.582-4.682 4.57-9.828 8.568-15.322 11.988 17.788 54.888 51.45 104.208 96.676 140.936 43.952 35.694 97.398 58.138 153.378 64.902-5.9-45.148-22.352-94.386-47.198-139.762-20.794-37.978-55.37-87.518-108.43-126.812-4.214 8.036-9.662 15.52-16.31 22.166zM666.188 325.192c-5.994-43.612-6.556-103.666-6.61-206.616h-295.154c-0.054 102.95-0.616 163.006-6.612 206.616-5.358 38.974-15.484 65.984-35.084 90.994 5.142 11.31 7.914 23.57 8.066 36.096 16.306 16.702 25.608 39.148 25.608 63.214 0 14.438-3.372 28.282-9.572 40.664 70.27 47.722 114.768 110.566 140.696 157.918 9.16 16.73 17.344 33.982 24.474 51.456 7.13-17.474 15.314-34.726 24.474-51.456 25.924-47.354 70.424-110.196 140.696-157.916-6.202-12.384-9.572-26.228-9.572-40.666 0-24.068 9.302-46.514 25.608-63.214 0.152-12.526 2.922-24.786 8.066-36.096-19.6-25.012-29.726-52.020-35.084-90.994zM703.48 619.34c-53.062 39.29-87.636 88.832-108.43 126.812-24.844 45.376-41.298 94.616-47.198 139.762 55.98-6.762 109.428-29.206 153.378-64.902 45.23-36.73 78.89-86.050 96.674-140.936-5.494-3.42-10.64-7.418-15.322-11.988-23.336-0.282-45.782-9.574-62.794-26.584-6.646-6.646-12.094-14.13-16.308-22.164zM812.406 118.572l-86.038 0.002c0.166 170.546 2.214 219.068 23.47 250.968 10.274-4.162 21.32-6.44 32.71-6.606 8.61-8.414 18.756-14.95 29.858-19.326v-225.038zM878.794 435.846l-12.646-20.416c-4.406-7.112-12.014-11.362-20.35-11.362s-15.944 4.246-20.348 11.36l-12.646 20.416-23.376-5.492c-8.214-1.93-16.606 0.546-22.414 6.354-5.89 5.89-8.266 14.272-6.354 22.418l5.49 23.376-20.416 12.644c-7.11 4.406-11.358 12.012-11.358 20.348 0 8.334 4.248 15.944 11.36 20.348l20.414 12.646-5.49 23.376c-1.912 8.146 0.464 16.526 6.352 22.414 5.89 5.89 14.27 8.268 22.422 6.354l23.374-5.49 12.644 20.414c4.406 7.11 12.012 11.358 20.348 11.358s15.946-4.246 20.35-11.36l12.644-20.412 23.374 5.492c8.152 1.912 16.528-0.464 22.418-6.354s8.266-14.272 6.354-22.416l-5.49-23.376 20.412-12.646c7.112-4.406 11.36-12.012 11.36-20.348s-4.246-15.944-11.358-20.348l-20.416-12.644 5.49-23.376c1.912-8.148-0.46-16.528-6.352-22.418-5.808-5.806-14.212-8.282-22.412-6.354l-23.38 5.494zM885.576 515.494c0-21.967-17.807-39.774-39.774-39.774s-39.774 17.807-39.774 39.774c0 21.967 17.807 39.774 39.774 39.774s39.774-17.807 39.774-39.774z" />
<glyph unicode="&#xe92c;" glyph-name="cake" d="M1024 110.948v66.782h-73.312v294.17h-132.92v265.698h-132.922v222.402h-345.692v-222.402h-132.922v-265.698h-132.92v-294.168h-73.312v-66.782h478.608v-108.166h-154.284v-66.784h375.348v66.782h-154.282v108.166h478.61zM405.936 893.218h212.128v-38.732c-8.66-3.548-15.144-7.978-20.308-11.504-7.202-4.92-8.916-6.090-16.032-6.090s-8.828 1.168-16.030 6.088c-10.336 7.058-25.952 17.726-53.702 17.726-27.748 0-43.362-10.668-53.696-17.726-7.202-4.92-8.914-6.088-16.028-6.088s-8.826 1.168-16.028 6.088c-5.164 3.528-11.646 7.956-20.304 11.504v38.734zM405.934 777.61h0.002c9.122-4.17 20.832-7.5 36.332-7.5 27.748 0 43.364 10.668 53.7 17.728 7.2 4.92 8.912 6.088 16.024 6.088 7.116 0 8.83-1.168 16.032-6.090 10.336-7.058 25.952-17.726 53.7-17.726 15.504 0 27.216 3.332 36.34 7.504v-40.014h-212.13v40.010zM273.010 670.816h477.976v-60.58c-8.426-3.568-14.752-7.988-19.798-11.516-6.958-4.866-8.406-5.88-14.914-5.88-6.51 0-7.956 1.012-14.914 5.88-10.212 7.144-25.646 17.938-53.19 17.938s-42.976-10.794-53.188-17.938c-6.956-4.866-8.404-5.88-14.908-5.88s-7.952 1.012-14.908 5.88c-10.214 7.144-25.646 17.938-53.19 17.938-27.542 0-42.974-10.794-53.186-17.938-6.956-4.866-8.404-5.88-14.908-5.88-6.502 0-7.95 1.012-14.906 5.88-10.212 7.144-25.644 17.938-53.188 17.938-27.542 0-42.972-10.796-53.184-17.94-6.954-4.866-8.4-5.876-14.902-5.876-6.5 0-7.944 1.012-14.9 5.876-5.044 3.528-11.368 7.944-19.792 11.516v60.582zM750.99 533.068v-61.168h-477.976v61.162c8.836-3.936 20.036-7.004 34.692-7.004 27.544 0 42.974 10.796 53.186 17.94 6.954 4.866 8.4 5.876 14.9 5.876 6.504 0 7.952-1.012 14.908-5.88 10.212-7.144 25.644-17.938 53.186-17.938 27.544 0 42.976 10.794 53.188 17.938 6.956 4.866 8.404 5.88 14.906 5.88 6.506 0 7.954-1.012 14.91-5.88 10.214-7.142 25.644-17.938 53.188-17.938s42.976 10.794 53.188 17.938c6.956 4.866 8.404 5.88 14.908 5.88 6.51 0 7.956-1.012 14.914-5.88 10.212-7.144 25.646-17.938 53.19-17.938 14.664 0.002 25.872 3.072 34.712 7.012zM140.108 405.122l743.798-0.004v-75.226c-8.738 3.858-19.776 6.834-34.152 6.834-27.476 0-42.846-10.838-53.014-18.012-6.816-4.806-8.232-5.806-14.53-5.806s-7.716 1-14.53 5.806c-10.172 7.172-25.542 18.012-53.016 18.012s-42.844-10.838-53.012-18.012c-6.812-4.804-8.228-5.804-14.52-5.804-6.296 0-7.714 1-14.528 5.806-10.168 7.172-25.54 18.012-53.012 18.012-27.476 0-42.846-10.838-53.014-18.012-6.816-4.806-8.232-5.806-14.528-5.806-6.3 0-7.718 1-14.532 5.806-10.172 7.172-25.544 18.010-53.018 18.010s-42.848-10.838-53.016-18.010c-6.818-4.806-8.234-5.806-14.534-5.806s-7.72 1-14.536 5.806c-10.17 7.172-25.544 18.010-53.018 18.010s-42.848-10.838-53.018-18.010c-6.816-4.806-8.232-5.806-14.532-5.806-6.304 0-7.724 1-14.54 5.808-10.172 7.172-25.544 18.010-53.020 18.010-14.388 0-25.43-2.978-34.172-6.838v75.232zM140.094 177.73v74.884c8.348 3.578 14.626 7.99 19.63 11.518 6.818 4.808 8.236 5.808 14.54 5.808 6.302 0 7.722-1 14.538-5.808 10.174-7.17 25.546-18.010 53.024-18.010s42.848 10.838 53.016 18.010c6.818 4.806 8.234 5.806 14.534 5.806s7.72-1 14.536-5.806c10.172-7.172 25.542-18.010 53.018-18.010s42.848 10.838 53.016 18.010c6.818 4.806 8.234 5.806 14.534 5.806s7.718-1 14.534-5.806c10.168-7.172 25.542-18.010 53.016-18.010s42.846 10.838 53.014 18.012c6.816 4.806 8.232 5.806 14.528 5.806 6.294 0 7.714-1 14.522-5.804 10.172-7.172 25.542-18.012 53.016-18.012s42.844 10.838 53.012 18.012c6.812 4.804 8.228 5.804 14.52 5.804 6.298 0 7.716-1 14.53-5.806 10.172-7.172 25.542-18.012 53.016-18.012s42.848 10.838 53.016 18.012c6.814 4.806 8.232 5.806 14.528 5.806s7.714-1 14.528-5.806c5.004-3.528 11.278-7.942 19.624-11.518v-74.886h-743.79z" />
<glyph unicode="&#xe92d;" glyph-name="cake-1" d="M895.042 768.736c-5.14 69.406-63.29 124.316-134.078 124.316-65.206 0-119.704-46.59-131.916-108.182l-629.048-213.624v-568.298h1024v544.374c0 95.172-44.49 171.344-128.958 221.414zM760.964 826.27c37.334 0 67.706-30.29 67.706-67.524s-30.372-67.526-67.706-67.526-67.706 30.292-67.706 67.526c0 37.234 30.372 67.524 67.706 67.524zM633.542 715.87c17.962-53.090 68.274-91.432 127.422-91.432 52.324 0 97.73 30.014 119.954 73.69 41.386-30.298 66.072-69.598 73.718-117.416h-719.078l397.984 135.158zM66.78 513.93h890.434v-113.032c-14.78 1.846-25.528 4.888-37.254 8.214-20.788 5.896-44.35 12.582-88.88 12.582s-68.090-6.686-88.876-12.582c-19.002-5.392-35.412-10.046-70.648-10.046-35.24 0-51.65 4.656-70.654 10.046-20.79 5.896-44.35 12.582-88.88 12.582s-68.092-6.686-88.882-12.582c-19.004-5.39-35.418-10.046-70.656-10.046-35.244 0-51.656 4.656-70.66 10.046-20.79 5.896-44.354 12.582-88.886 12.582-44.53 0-68.094-6.686-88.886-12.582-11.73-3.326-22.484-6.368-37.274-8.214v113.032zM957.214 69.73h-890.432v93.698c24.326 2.292 40.644 6.894 55.498 11.108 19.004 5.39 35.418 10.046 70.658 10.046s51.654-4.658 70.658-10.046c20.79-5.896 44.354-12.582 88.886-12.582 44.528 0 68.092 6.684 88.882 12.582 19.004 5.39 35.418 10.046 70.656 10.046 35.24 0 51.65-4.654 70.652-10.046 20.788-5.896 44.35-12.582 88.88-12.582 44.526 0 68.088 6.684 88.876 12.582 19.002 5.392 35.412 10.046 70.65 10.046 35.24 0 51.65-4.658 70.652-10.046 14.852-4.214 31.166-8.816 55.484-11.108v-93.698zM957.214 230.568c-14.782 1.846-25.534 4.888-37.256 8.214-20.788 5.896-44.35 12.582-88.88 12.582s-68.090-6.684-88.876-12.582c-19.002-5.392-35.412-10.046-70.648-10.046-35.24 0-51.65 4.654-70.654 10.046-20.788 5.896-44.35 12.582-88.88 12.582s-68.092-6.684-88.882-12.582c-19.004-5.392-35.418-10.046-70.656-10.046-35.244 0-51.656 4.658-70.66 10.048-20.79 5.896-44.354 12.582-88.886 12.582-44.53 0-68.094-6.684-88.886-12.582-11.73-3.328-22.484-6.372-37.274-8.216v103.186h0.004c24.326 2.292 40.644 6.894 55.498 11.108 19.004 5.392 35.418 10.046 70.658 10.046s51.654-4.654 70.658-10.046c20.79-5.896 44.354-12.582 88.886-12.582 44.528 0 68.092 6.684 88.882 12.582 19.004 5.392 35.414 10.046 70.654 10.046s51.65-4.654 70.654-10.046c20.79-5.896 44.35-12.582 88.88-12.582 44.526 0 68.088 6.684 88.876 12.582 19.002 5.392 35.412 10.046 70.65 10.046 35.24 0 51.65-4.654 70.652-10.046 14.852-4.214 31.166-8.816 55.484-11.108v-103.186z" />
<glyph unicode="&#xe92e;" glyph-name="schedule" d="M832.556 890.484v53.66h-66.782v-53.658h-124.66v53.658h-66.782v-53.658h-124.66v53.658h-66.782v-53.658h-124.66v53.658h-66.786v-53.658h-191.444v-938.632h1024v938.63h-191.444zM957.218 18.636h-890.436v589.78h890.434v-589.78zM957.218 675.198h-890.436v148.504h124.66v-53.642h66.782v53.642h124.66v-53.642h66.782v53.642h124.66v-53.642h66.782v53.642h124.66v-53.642h66.782v53.642h124.66v-148.504zM428.478 178.2c26.914-20.816 63.784-44.784 65.342-45.796l18.18-11.8 18.18 11.8c1.556 1.010 38.428 24.982 65.342 45.796 60.94 47.132 130.888 110.736 130.888 184.85-0.002 75.534-61.452 136.982-136.982 136.982-27.858 0-54.82-8.524-77.428-24.014-22.606 15.492-49.57 24.014-77.428 24.014-75.532 0-136.982-61.448-136.982-136.982 0-74.114 69.948-137.718 130.888-184.85zM434.574 433.248c20.012 0 39.14-8.602 52.474-23.598l24.952-28.064 24.954 28.064c13.334 14.994 32.46 23.598 52.474 23.598 38.708 0 70.2-31.49 70.2-70.2-0.002-33.736-35.314-78.158-104.962-132.024-13.438-10.394-30.154-22.018-42.666-30.496-12.5 8.47-29.204 20.086-42.662 30.496-69.648 53.866-104.962 98.286-104.962 132.024-0.002 38.71 31.488 70.2 70.198 70.2z" />
<glyph unicode="&#xe92f;" glyph-name="dress" d="M790.484 498.104c-46.52 61.024-101.584 107.594-158.35 135.686 4.71 10.212 13.374 20.346 25.388 33.876 22.374 25.2 50.222 56.56 50.222 107.496 0 41.212-19.262 77.988-49.232 101.872v82.966h-66.782v-55.38c-4.678 0.512-9.424 0.792-14.236 0.792-23.24 0-45.764-6.152-65.496-17.652-19.732 11.5-42.256 17.652-65.496 17.652-4.81 0-9.556-0.282-14.236-0.792v55.38h-66.782v-82.962c-29.97-23.884-49.232-60.66-49.232-101.872 0-50.936 27.846-82.296 50.222-107.496 12.014-13.53 20.68-23.666 25.388-33.876-56.768-28.094-111.832-74.662-158.35-135.686-86.808-113.87-134.612-264.426-134.612-423.938v-15.178l11.436-9.98c3.314-2.894 71.658-61.492 162.36-61.486 9.62 0 19.496 0.672 29.57 2.128 26.922-19.332 91.392-53.654 209.732-53.654 118.338 0 182.81 34.32 209.738 53.652 10.072-1.456 19.946-2.128 29.57-2.128 90.69 0 159.042 58.596 162.36 61.486l11.436 9.98v15.178c-0.004 159.51-47.808 310.068-134.618 423.936zM383.034 775.166c0 34.996 28.472 63.466 63.466 63.466 15.934 0 31.172-5.936 42.908-16.716l22.59-20.752 22.588 20.75c11.734 10.778 26.974 16.716 42.908 16.716 34.996 0 63.466-28.472 63.466-63.466 0-24.332-12.682-39.85-33.378-63.154-13.388-15.080-28.892-32.556-38.138-55.018-19.33 4.74-38.566 7.228-57.448 7.228s-38.122-2.488-57.448-7.228c-9.242 22.464-24.748 39.94-38.136 55.020-20.692 23.304-33.378 38.822-33.378 63.154zM743.626 54.57c-13.888 139.85-48.494 197.044-79.24 247.84l-57.132-34.58c28.878-47.714 58.7-96.98 70.618-227.13-6.492-4.148-15.89-9.376-28.502-14.584-25.786-10.646-70.554-23.334-137.37-23.334s-111.582 12.688-137.37 23.334c-12.612 5.206-22.012 10.436-28.502 14.584 11.918 130.15 41.74 179.418 70.618 227.13l-57.132 34.58c-30.744-50.794-65.352-107.99-79.24-247.84-50.5-2.622-94.426 22.37-114.506 36.108 3.132 138.776 45.73 268.524 120.756 366.938 65.748 86.246 152.106 139.82 225.376 139.82s159.628-53.576 225.376-139.82c75.020-98.408 117.618-228.164 120.756-366.932-20.136-13.772-64.040-38.734-114.506-36.114z" />
<glyph unicode="&#xe930;" glyph-name="invitation" d="M0 793.732v-691.462h1024v691.462h-1024zM902.724 726.948l-242.118-215.024c-20.774 26.232-52.87 43.108-88.854 43.108-21.304 0-41.978-6.026-59.752-17.056-17.776 11.032-38.448 17.056-59.752 17.056-35.982 0-68.078-16.876-88.854-43.108l-242.12 215.024h781.45zM618.304 441.698c0-23.554-26.256-55.804-78.044-95.858-8.766-6.78-19.388-14.264-28.26-20.342-8.874 6.078-19.496 13.562-28.26 20.342-51.786 40.054-78.044 72.304-78.044 95.858 0 25.668 20.882 46.552 46.552 46.552 13.27 0 25.954-5.706 34.798-15.654l24.954-28.068 24.954 28.068c8.844 9.948 21.528 15.654 34.798 15.654 25.67 0 46.552-20.884 46.552-46.552zM66.782 686.026l272.198-241.736c-0.020-0.866-0.066-1.724-0.066-2.594 0-4.732 0.376-9.398 1.026-14.008l-273.158-221.884v480.222zM127.46 169.052l240.742 195.556c20.428-27.358 48.586-51.41 74.68-71.59 21.016-16.254 49.728-34.92 50.94-35.706l18.18-11.798 18.18 11.798c1.21 0.786 29.922 19.452 50.94 35.706 26.094 20.182 54.252 44.234 74.68 71.59l240.742-195.556h-769.084zM957.218 205.802l-273.158 221.888c0.65 4.61 1.026 9.276 1.026 14.008 0 0.868-0.046 1.728-0.066 2.592l272.198 241.738v-480.226z" />
<glyph unicode="&#xe931;" glyph-name="invitation-1" d="M898.132 707.044v252.956h-772.264v-252.96l-125.868-98.11v-672.93h1024v672.93l-125.868 98.114zM898.132 622.368l39.716-30.956-39.716-35.272v66.228zM192.65 893.218h638.698l0.002-396.388-319.35-283.616-319.35 283.616v396.388zM125.868 622.37v-66.23l-39.716 35.272 39.716 30.958zM66.782 519.294l282.676-251.044-282.676-229.618v480.662zM128.57 2.782l271.49 220.53 111.94-99.414 111.942 99.414 271.49-220.53h-766.862zM957.218 38.632l-282.678 229.616 282.678 251.046v-480.662zM530.178 423.83c1.212 0.786 29.858 19.41 50.826 35.626 48.308 37.362 103.758 87.994 103.758 148.4 0 62.39-50.76 113.15-113.148 113.15-21.254 0-41.878-6.006-59.614-17.002-17.74 10.996-38.362 17.002-59.614 17.002-62.39 0-113.15-50.76-113.15-113.15 0.002-60.4 55.45-111.032 103.758-148.4 20.97-16.22 49.618-34.842 50.826-35.626l18.18-11.798 18.178 11.798zM483.848 512.278c-51.646 39.948-77.832 72.104-77.832 95.574 0.004 25.568 20.802 46.37 46.37 46.37 13.218 0 25.85-5.684 34.66-15.592l24.954-28.068 24.954 28.068c8.806 9.908 21.44 15.59 34.658 15.59 25.564 0 46.364-20.8 46.364-46.368 0-23.474-26.188-55.63-77.836-95.574-8.726-6.752-19.304-14.204-28.146-20.262-8.832 6.050-19.402 13.498-28.146 20.262z" />
<glyph unicode="&#xe932;" glyph-name="stair" d="M971.966 758.12h-187.063c-28.742 0-52.034-23.275-52.034-52.025v-135.052h-135.050c-28.75 0-52.042-23.266-52.042-52.019v-135.061h-135.052c-28.75 0-52.034-23.3-52.034-52.021v-141.566h-141.534c-13.81 0-27.045-5.475-36.798-15.22-9.762-9.752-15.237-23.045-15.237-36.8l0.017-108.848c0-28.778 23.3-52.050 52.034-52.050h754.794c28.75 0 52.031 23.273 52.031 52.050v676.59c0.004 28.748-23.281 52.023-52.031 52.023zM698.134 908.066c-13.39 13.728-35.325 13.992-49.045 0.635-222.519-216.763-434.209-428.479-638.924-633.174-6.514-6.514-10.165-15.362-10.165-24.546v-237.393c0-19.132 15.524-34.696 34.688-34.696 19.144 0 34.696 15.558 34.696 34.696v223.038c201.392 201.401 409.605 409.505 628.104 622.391 13.713 13.355 13.994 35.329 0.646 49.049z" />
<glyph unicode="&#xe933;" glyph-name="seed" d="M505.304 584.021c9.633-3.778 19.084 5.469 15.89 15.308-21.916 67.538-101.269 92.732-175.036 32.813-38.802-31.522-53.384-38.22-53.751-38.389 25.58-25.576 54.805-111.4 118.582-120.892 70.256-12.738 132.437 56.383 81.564 88.013-33.457 20.799-72.849 32.881-115.073 32.881 44.267 9.978 88.458 5.7 127.825-9.734zM823.436 632.146c-127.336 103.432-208.543-59.682-158.065-43.513 35.851 11.484 75.044 13.985 114.358 5.124-66.61 0-128.012-30.526-168.95-80.214 3.363 78.085 8.448 126.961 14.344 163.319 34.026 1.17 79.375 28.646 104.28 76.725 42.935 76.837 23.024 155.621 16.617 205.334-33.548-32.669-180.098 5.61-238.194-93.943-25.663-43.977-18.204-97.49 8.793-136.652 8.546-12.397 28.98-6.449 29.562 8.596 2.536 65.447 35.109 114.895 95.832 142.283-27.248-35.305-45.139-74.832-54.382-115.685-14.366-63.64-29.373-105.388-34.882-308.229-0.56-20.571 16.105-37.599 36.683-37.34 14.896 0.187 27.657 9.64 33.386 23.392 8.713 20.916 22.894 42.563 45.971 62.396 21.93-24.24 55.3-37.137 89.829-30.876 63.506 9.45 93.143 95.462 118.58 120.896-0.372 0.164-14.956 6.862-53.758 38.387zM1010.623 379.407c-39.808 27.008-83.133 7.762-103.030-3.726l-249.692-182.75-146.2-0.032-36.55 36.55h134.267c40.381 0 85.605 26.302 85.605 73.116 0 49.701-45.224 73.116-85.605 73.116h-50.316c-37.377 0-81.057-3.333-111.855 13.153-29.261 14.89-62.955 23.362-98.923 23.362-60.397 0-114.452-24.077-151.493-62.048l-196.831-193.768 219.3-219.3 73.1 109.65h345.435c36.84 0 72.401 13.514 99.942 37.98l275.345 244.6c15.308 13.597 14.444 38.599-2.499 50.096z" />
<glyph unicode="&#xe934;" glyph-name="talk" d="M913.722 746.182h-233.034v-262.602c0-78.096-63.53-141.626-141.626-141.626h-195.69c1.84-59.224 50.574-106.81 110.216-106.81h251.486l192.136-192.156v192.156h16.51c60.814 0 110.278 49.466 110.278 110.278v290.482c0.002 60.812-49.464 110.278-110.276 110.278zM797.006 467.132h-57.552v57.552h57.552v-57.552zM911.38 467.132h-57.554v57.552h57.554v-57.552zM539.062 853.012h-460.13c-43.406 0-78.932-35.526-78.932-78.93v-290.502c0-43.406 35.526-78.932 78.932-78.932h47.856v-147.812l147.812 147.812h264.464c43.426 0 78.932 35.526 78.932 78.932v290.502c-0.002 43.404-35.508 78.93-78.934 78.93zM362.328 601.674c-31.2-32.496-51.764-45.6-53.268-46.54v-0.062c0 0-0.042 0-0.062 0.020-0.020-0.020-0.042-0.020-0.042-0.020v0.062c-1.526 0.94-22.090 14.044-53.268 46.54-32.434 33.792-29.068 82.442 4.724 91.888 32.664 9.154 47.648-19.624 48.588-21.524 0.94 1.902 15.924 30.678 48.588 21.524 33.788-9.446 37.154-58.096 4.74-91.888z" />
<glyph unicode="&#xe935;" glyph-name="proposal" d="M633.344 366.219c-30.852 0-55.852-25.008-55.852-55.852l1.148-85.203c-1.242-89.883-52.133-128.352-102.398-153.859-1.844-1.203-3.875-2.078-6.016-2.586-2.109-0.523-4.297-0.664-6.461-0.406l-74.617-0.484c-10.281 0.016-18.609 8.359-18.594 18.648 0.008 3.336 0.914 6.609 2.617 9.484 12.586 21.148 76.914 127.789 107.43 149.891l59.984 43.492-0.336 20.758c0.016 24.164 9.422 47.383 26.234 64.734-15.617 11.016-28.977 24.922-39.359 40.961l-231.906-191.078-89.219-231.984 13.664-54.734h469.531v372.367c0 30.844-25.008 55.852-55.852 55.852zM651.961 645.492c2.828 0 5.586-0.258 8.375-0.43l28.859 43.25v31.648h-74.469v-31.648l28.859-43.305c2.789 0.227 5.547 0.484 8.375 0.484zM651.961 608.258c-61.633 0.047-111.633-49.883-111.688-111.516-0.031-41.914 23.422-80.305 60.727-99.414 26.789 10.422 56.945 7.43 81.156-8.063 59.336 16.617 93.961 78.18 77.344 137.516-13.5 48.211-57.469 81.523-107.539 81.477zM651.961 422.070c-41.133 0-74.477 33.344-74.477 74.477s33.344 74.469 74.477 74.469c41.133 0 74.469-33.336 74.469-74.469s-33.336-74.477-74.469-74.477zM689.195 496.547c0-20.57-16.672-37.234-37.234-37.234s-37.234 16.664-37.234 37.234c0 20.563 16.672 37.234 37.234 37.234s37.234-16.672 37.234-37.234zM503.016 887.523h37.234v-37.234h-37.234zM447.164 831.672h37.234v-37.234h-37.234zM503.016 775.82h37.234v-37.242h-37.234zM558.867 831.672h37.242v-37.234h-37.242zM745.055 962h37.234v-37.234h-37.234zM707.813 924.766h37.242v-37.234h-37.242zM745.055 887.523h37.234v-37.234h-37.234zM782.289 924.766h37.234v-37.234h-37.234z" />
<glyph unicode="&#xe936;" glyph-name="journey" d="M94.538 276.524c-29.353 0-53.155-54.564-53.155-121.862 0-96.383 18.342-121.88 47.705-121.88 29.353 0 64.054 41.847 64.054 138.239 0 67.289-29.251 105.503-58.605 105.503zM96.717 24.588h-3.003c-19.872 0-35.98-14.459-35.98-32.282v-24.024c0-17.823 16.109-32.282 35.98-32.282h3.003c19.872 0 35.98 14.468 35.98 32.282v24.024c0 17.833-16.109 32.282-35.98 32.282zM260.815 407.766c-29.353 0-58.605-38.214-58.605-105.522 0-96.383 34.701-138.239 64.064-138.239 29.353 0 47.696 25.488 47.696 121.871 0 67.326-23.792 121.89-53.155 121.89zM261.631 155.839h-2.994c-19.872 0-35.98-14.459-35.98-32.273v-24.033c0-17.823 16.109-32.282 35.98-32.282h2.994c19.872 0 35.98 14.468 35.98 32.282v24.033c0 17.823-16.109 32.273-35.98 32.273zM981.94 884.193c-6.951 28.51-51.004 47.881-116.403 31.921-93.649-22.838-126.088-66.464-119.118-94.993 6.951-28.528 36.073-40.299 129.703-17.462 65.398 15.96 112.77 52.015 105.818 80.534zM736.659 826.617c-4.708 19.306-22.569 31.513-39.882 27.296l-23.347-5.691c-17.323-4.217-27.555-23.301-22.847-42.607l0.714-2.901c4.718-19.306 22.569-31.531 39.892-27.305l23.357 5.691c17.323 4.226 27.546 23.301 22.828 42.607l-0.714 2.91zM397.544 718.881c29.103 3.865 43.933 31.541 31.235 127.099-8.861 66.715-39.641 117.673-68.744 113.808-29.094-3.874-53.062-45.601-44.192-112.315 12.698-95.549 52.599-132.456 81.702-128.591zM437.12 659.090l-3.17 23.811c-2.345 17.675-20.224 29.882-39.919 27.259l-2.975-0.399c-19.696-2.614-33.765-19.065-31.411-36.74l3.17-23.82c2.345-17.675 20.215-29.882 39.919-27.249l2.966 0.389c19.696 2.623 33.765 19.075 31.42 36.75zM629.969 377.263c-5.357-1.78-11.085-3.133-17.026-4.023l2.725-18.342c7.007 1.038 13.791 2.651 20.168 4.773 32.338 10.779 53.201 26.86 62.015 47.798l-17.073 7.192c-6.664-15.803-23.755-28.389-50.81-37.398zM678.49 502.582c-12.689 21.039-29.965 44.109-56.009 74.815l-14.125-11.984c25.368-29.928 42.116-52.265 54.276-72.405l15.858 9.574zM156.526 574.876c0 0-0.009 0-0.019 0-19.76 0-34.961-8.156-45.165-24.246l15.645-9.927c6.766 10.668 16.155 15.645 29.52 15.645 0 0 0.009 0 0.019 0 11.28 0 25.118-3.503 42.292-10.714l7.174 17.091c-19.492 8.175-35.674 12.151-49.466 12.151zM435.415 405.198c30.929-16.841 59.68-29.733 85.474-38.279l5.821 17.592c-24.728 8.203-52.478 20.641-82.434 36.953l-8.861-16.266zM342.201 484.879c-11.734 7.035-23.421 14.255-34.979 21.382l-19.195 11.808-9.667-15.812 19.13-11.78c11.613-7.155 23.384-14.431 34.803-21.262l3.263-2.169c6.303-4.199 13.171-8.777 20.52-13.615l10.186 15.497c-7.313 4.81-14.144 9.37-20.418 13.541l-3.643 2.41zM114.54 456.221l-18.518-0.825c0.63-14.116 1.993-29.919 4.060-46.917l18.398 2.234c-2.002 16.544-3.327 31.856-3.939 45.508zM579.678 679.388l-68.049 18.12-18.111-68.049 17.916-4.773 11.020 41.421c1.557-2.16 3.327-4.597 5.218-7.22 10.622-14.709 25.173-34.859 33.292-44.396l14.097 12.021c-7.628 8.972-21.929 28.769-32.375 43.228-0.102 0.148-0.195 0.25-0.278 0.389l32.495-8.647 4.773 17.907z" />
<glyph unicode="&#xe937;" glyph-name="altar" d="M978.592 380.9l-433.2 361.002v84.532h33.392c18.942 0 34.202 15.774 33.358 34.902-0.794 18.020-16.368 31.88-34.406 31.88h-32.342v33.392c-0.004 18.442-14.954 33.392-33.394 33.392s-33.392-14.95-33.392-33.392v-33.392h-33.392c-18.978 0-34.258-15.83-33.354-35.006 0.846-17.96 16.318-31.778 34.298-31.778h32.448v-84.534l-433.2-360.998c-14.166-11.808-16.082-32.862-4.276-47.028s32.862-16.078 47.028-4.276l423.84 353.2 423.84-353.202c6.244-5.202 13.822-7.74 21.36-7.74 9.568 0 19.064 4.092 25.67 12.016 11.806 14.168 9.888 35.222-4.278 47.030zM512 595.864l-378.436-315.364v-311.11c0-18.44 14.95-33.392 33.392-33.392h690.086c18.44 0 33.392 14.95 33.392 33.392v311.112l-378.434 315.362zM584.754 73.702c-21.134-17.132-42.908-36.47-67.99-58.012-1.632-1.4-3.724-2.18-5.872-2.18-2.16 0-4.26 0.784-5.894 2.194-24.868 21.488-44.598 40.846-65.746 57.992-91.594 74.256-139.39 116.016-139.39 180.698 0 30.512 10.472 58.958 29.486 80.092 19.598 21.784 46.794 33.78 76.582 33.78 31.644 0 58.498-13.756 79.814-40.88l26.256-33.412 26.254 33.414c21.314 27.122 48.168 40.878 79.812 40.878 29.788 0 56.986-11.996 76.582-33.78 19.016-21.134 29.486-49.58 29.486-80.092 0-64.68-47.794-106.44-139.38-180.692z" />
</font>
</defs>
</svg>
